<?xml version="1.0" standalone="no"?>
<!DOCTYPE svg PUBLIC "-//W3C//DTD SVG 1.1//EN" "http://www.w3.org/Graphics/SVG/1.1/DTD/svg11.dtd" >
<svg xmlns="http://www.w3.org/2000/svg">
<metadata>
<json>
<![CDATA[
{
	"fontFamily": "julyico",
	"majorVersion": 1.3,
	"minorVersion": 0,
	"designer": "Kibria",
	"designerURL": "https://www.julyservices.com",
	"copyright": "July Business Services",
	"version": "Version 1.3",
	"fontId": "julyico",
	"psName": "julyico",
	"subFamily": "Regular",
	"fullName": "julyico",
	"description": "Font generated by IcoMoon."
}
]]>
</json>
</metadata>
<defs>
<font id="julyico" horiz-adv-x="1024">
<font-face units-per-em="1024" ascent="960" descent="-64" />
<missing-glyph horiz-adv-x="1024" />
<glyph unicode="&#x20;" horiz-adv-x="512" d="" />
<glyph unicode="&#xe900;" glyph-name="hand-pen-outline" data-tags="hand-pen-outline" d="M818.4 443.6l-133.2-7.6 3.6-16.4c-11.6 1.6-28 7.2-45.6 20.8-26 20.4-77.6 62.4-108 87.2l155.2 157.6-9.6 7.6c9.6-7.6 9.6-7.6 9.6-7.6v0 0 0c0 0 0 0 0 0s0 0 0 0 0.4 0.4 0.4 0.8 0.8 1.6 1.6 2.4c1.2 2 2.4 4.8 3.6 8.4 2 7.2 2.4 18.4-6.8 27.6-4.8 4.8-9.6 10-14.8 15.2v0c-4.8 5.2-9.6 10.4-15.2 15.6-8.4 8.4-18.4 10-26.8 8.8-7.6-1.2-14.4-4.8-18.4-8.8-2-2-10.4-10.8-18.4-18.8-2.4-2.4-4.8-4.8-7.2-7.2-3.6 3.2-8 7.2-12.4 10.8-5.2 4.4-11.2 9.2-16.4 12.8-2.4 1.6-5.2 3.2-8 4.4-1.2 0.4-3.2 1.2-5.2 1.6s-6 0.4-10-2.4c-10-7.2-18.8-17.6-26-28.8-7.6-11.2-14.8-24-21.2-36.4-1.2-2-2-3.6-3.2-5.6-5.6-10.4-10.8-20.4-16.4-28.8-6.4-10.4-12-17.6-16.8-21.6-5.2-4.4-6-12-2-17.2 4.4-5.2 12-6 17.2-2 8.4 6.8 15.6 17.2 22.4 28 5.6 9.2 11.2 20 16.8 30.4 0.8 2 2 3.6 2.8 5.6 6.8 12.4 13.2 24.4 20 34.4 5.2 7.6 10.4 14 15.2 18.4v0c4-2.8 8.8-6.8 14.4-11.2 4-3.2 7.6-6.8 10.8-9.6l-132.4-136-34 17.6-1.2 0.4c-10 2.8-26 4.4-42.4 1.6-16.8-2.8-35.6-10-48.8-27.2-22.4-28-92.8-125.2-125.2-170v0 0c-4.4-6-9.6-17.2-6.8-29.2 3.2-13.2 15.2-20.8 32.4-23.6l-18.8-19.2-42.4-112.8 112 33.6 48.8 50 23.2-2.8c0-4.8 0.8-9.6 2.4-13.6 1.6-4.8 4-9.2 7.2-12.8 2.8-3.6 6.8-7.2 12-9.2 30-12 53.2-0.8 61.6 16 2.8 5.6 5.2 9.2 7.2 12.4 0 0.4 0.4 0.4 0.4 0.8 0 0 0 0 0 0.4 2.8-0.4 6-1.2 9.6-2 10.4-2.8 20.8-6.8 27.6-12 8.8-7.2 10-8.8 13.2-12 1.6-1.6 3.6-4 7.2-7.6 19.6-19.6 38.8-28.4 56-32.4 14.8-3.2 27.2-2.4 35.2-2 1.2 0 2 0 3.2 0l158 6.8 5.2-21.6 138 7.6-60.4 230.4zM590 695.2l18-17.6 17.2 17.6-18 17.6c2 2 4.4 4.4 6.8 6.8 8 8 16.4 16.8 18.4 18.8 0 0 0 0 0 0s0.4 0.4 1.6 0.8c0.8 0.4 2 0.8 3.2 1.2 1.2 0 2 0 2.8 0 0.8-0.4 1.6-0.8 2.8-1.6 4.8-4.8 9.6-10 14.8-15.2v0c4.8-5.2 9.6-10.4 15.2-15.6 0.8-0.8 0.8-1.2 0.8-1.6s0-1.2-0.4-2c-0.4-1.2-0.8-2-1.2-2.8 0 0 0-0.4-0.4-0.4l-300.4-304.8-71.2 2.4-2.4-1.2c-0.4 0-0.4-0.4-0.8-0.4l293.2 298zM431.6 402.4c-0.4 0-0.4-0.4-0.8-0.4-3.2-1.2-7.6-2.4-13.2-3.2-4-0.8-7.6-1.2-10.8-1.6l1.6 1.6 12.4 12.8c3.2-2.8 7.2-5.6 10.8-9.2 0 0 0 0 0 0zM204.4 373.6c-1.6 1.2-1.6 1.6-1.6 2 0 0.8-0.4 1.6 0.4 3.6 0.4 2 1.6 3.6 2.4 5.2 32.4 45.2 102.8 141.6 124.4 168.8 8.4 10.8 20.8 16 33.6 18 12.4 2 24 0.8 31.2-0.8l24.8-12.8-185.6-188.4c-0.8 0-1.6 0-2.8-0.4-2.8 0-7.2 0-14.8 1.2-6.8 0.8-10 2.4-12 3.6zM248.4 269.6l-58-17.6 23.2 61.2 41.2 41.6c-3.6-8-5.6-16.4-5.2-24.4 0.8-8.8 5.2-18 15.2-22 6-2.4 11.2-4 16.4-5.6l-32.8-33.2zM394.4 286.4c-1.6-3.6-10.4-12.4-30.4-4.4v0c0 0-0.8 0.4-2 2s-2.4 3.6-3.2 6c-0.4 1.2-0.8 2.4-0.8 3.2l38.8-1.6c-0.8-1.6-1.6-3.2-2.4-5.2zM574.8 245.2c-1.2 0-2.4 0-3.6 0-8-0.4-17.2-0.8-28.4 1.6-12.4 2.8-27.6 9.6-44 25.6-2.8 2.8-4.8 4.8-6.4 6.4-3.6 4-6 6.4-16 14.8-10.8 8.8-25.6 14-36.8 16.8-5.6 1.6-10.8 2.4-14.4 3.2-2 0.4-3.2 0.4-4.4 0.8-0.4 0-0.8 0-1.2 0 0 0-0.4 0-0.4 0v0 0 0c0 0 0 0-1.2-10l1.2 10h-0.4l-67.6 3.2-44.8 5.2h-0.8c-2.4 0-14 1.2-31.6 8.4 0 0.4 0 0.8 0 1.2-0.4 2.8 0.4 7.2 3.2 13.2 4.8 10.8 14.8 22.4 27.2 28.4l71.6-3.2c8.8 0 25.6 0 46 3.6 6.4 1.2 12.4 2.8 17.6 4.4 4.8 1.6 10 4.4 13.6 8.4 4.4 4.8 6.4 11.2 4.8 18-1.2 6-5.2 10.8-8.8 14.4s-7.2 6.8-11.2 9.2l80 80.8c30-24.8 83.6-68 110.4-89.2 25.2-19.6 50-25.6 66.4-26.4l33.2-142.8-153.2-6zM715.6 413.2l84 4.8 46-181.6-87.6-4.8-42.4 181.6z" />
<glyph unicode="&#xe901;" glyph-name="age-outline" data-tags="age-outline" d="M636.928 753.152h-251.904v-22.425h251.904v22.425zM358.4 796.16c6.786 0 12.288-5.501 12.288-12.288v-73.728c0-6.786-5.502-12.288-12.288-12.288s-12.288 5.502-12.288 12.288v73.728c0 6.787 5.501 12.288 12.288 12.288zM663.552 796.16c6.788 0 12.288-5.501 12.288-12.288v-73.728c0-6.786-5.5-12.288-12.288-12.288s-12.288 5.502-12.288 12.288v73.728c0 6.787 5.5 12.288 12.288 12.288zM821.248 462v-318.756c0-13.244-10.744-23.98-23.996-23.98h-571.546c-13.251 0-23.994 10.736-23.994 23.98v559.409c0 13.242 10.744 23.978 23.994 23.978h104.022v26.521h-108.118c-25.069 0-45.482-20.399-45.482-45.451v-568.553c0-25.052 20.413-45.452 45.482-45.452h578.73c25.072 0 45.484 20.4 45.484 45.452l-0.328 336.852-24.248-14zM799.744 753.098h-109.568v-22.371h107.076c13.252 0 23.996-10.736 23.996-23.978v-58.748l24.576-12-0.6 71.646c0 25.052-20.412 45.451-45.48 45.451zM657.808 610.598h-456.080v-24.576h456.080c6.788 0 12.288 5.502 12.288 12.288s-5.5 12.288-12.288 12.288zM827.912 534.876l-43.932 13.932 23.36 16.503c4.956 3.306 5.916 10.123 2.608 15.078s-10.128 5.913-15.088 2.607l-21.236-15.036 1.78 42.982c0.252 6.089-4.488 11.020-10.224 11.28-6.092 0.254-11.024-4.483-11.288-10.214l-2.22-59.096-20.528-14.308 1.708 46.918c0.256 6.089-4.484 11.020-10.22 11.28-6.092 0.255-11.028-4.482-11.288-10.214l-2.512-63.040-181.936-127.648c-4.956-3.308-5.916-10.124-2.608-15.080 2.196-2.824 5.452-4.56 9.032-4.5 2.148 0.036 4.284 0.788 6.056 1.892l180.18 125.476c0.36 0.004 0.364-0.352 0.724-0.348l58.336-18.336c1.080-0.34 2.16-0.68 3.592-0.656 4.656 0.080 8.544 3.008 9.904 7.328 1.696 5.756-1.272 11.788-7.032 13.48l-43.576 13.936 20.18 13.944c0.356 0.008 0.364-0.352 0.72-0.344l58.696-18.332c1.080-0.34 2.16-0.68 3.592-0.656 4.656 0.080 8.544 3.008 9.904 7.328 2.052 5.76-1.276 11.792-6.684 13.844zM618.336 473.708c-27.064 28.256-65.176 45.868-107.36 45.868-82.012 0-148.622-66.564-148.622-148.52s66.61-148.52 148.622-148.52c82.012 0 148.624 66.564 148.624 148.52 0 21.4-4.544 41.748-12.712 60.136l17.864 12.548c10.472-22.048 16.336-46.692 16.336-72.684 0-93.764-76.284-169.992-170.112-169.992s-170.11 76.228-170.11 169.992c0 93.764 76.282 169.996 170.11 169.996 49.432 0 93.992-21.16 125.096-54.892l-17.736-12.452zM510.976 308.424c34.612 0 62.672 28.040 62.672 62.632 0 4.616-0.5 9.12-1.452 13.456l-36.644-22.528c-20.48-12.288-43.008 18.432-24.576 32.768l34.816 28.388c-9.96 6.66-21.932 10.544-34.816 10.544-34.612 0-62.672-28.040-62.672-62.628 0-34.592 28.060-62.632 62.672-62.632zM396.296 641.294h-15.873l-2.772-8.976h-12.375l17.622 48.048h10.89l17.756-48.048h-12.443l-2.805 8.976zM383.195 650.236h10.329l-5.181 16.665-5.148-16.665zM467.876 638.258c-1.78-1.98-4.388-3.575-7.82-4.785s-7.196-1.815-11.288-1.815c-6.292 0-11.316 1.925-15.080 5.775-3.76 3.85-5.776 9.207-6.040 16.071l-0.032 4.158c0 4.73 0.836 8.855 2.508 12.375 1.672 3.542 4.060 6.259 7.16 8.151 3.124 1.914 6.732 2.871 10.824 2.871 5.984 0 10.628-1.375 13.928-4.125 3.32-2.728 5.256-6.809 5.808-12.243h-11.156c-0.396 2.684-1.252 4.598-2.572 5.742s-3.192 1.716-5.612 1.716c-2.904 0-5.148-1.232-6.732-3.696s-2.384-5.984-2.408-10.56v-2.904c0-4.796 0.816-8.404 2.444-10.824 1.648-2.398 4.232-3.597 7.752-3.597 3.016 0 5.26 0.671 6.732 2.013v7.458h-8.052v7.953h19.636v-19.734zM518.6 652.678h-18.216v-11.451h21.516v-8.91h-33.1v48.048h33.164v-8.943h-21.58v-10.131h18.216v-8.613zM598.004 681.058v-8.745h-0.496c-4.16 0-7.58-1.001-10.264-3.003-2.66-1.98-4.3-4.741-4.916-8.283 2.508 2.464 5.676 3.696 9.504 3.696 4.156 0 7.468-1.518 9.932-4.554s3.696-7.018 3.696-11.946c0-3.058-0.724-5.863-2.176-8.415-1.432-2.552-3.444-4.554-6.040-6.006-2.576-1.43-5.436-2.145-8.58-2.145-3.412 0-6.456 0.77-9.14 2.31-2.684 1.562-4.776 3.784-6.272 6.666s-2.264 6.204-2.308 9.966v4.455c0 4.95 1.056 9.394 3.168 13.332 2.132 3.96 5.168 7.062 9.108 9.306 3.936 2.244 8.304 3.366 13.1 3.366h1.684zM587.972 656.21c-1.476 0-2.708-0.341-3.696-1.023-0.992-0.682-1.728-1.518-2.212-2.508v-3.333c0-6.072 2.1-9.108 6.304-9.108 1.692 0 3.1 0.759 4.224 2.277 1.144 1.518 1.716 3.421 1.716 5.709 0 2.354-0.584 4.268-1.752 5.742-1.144 1.496-2.672 2.244-4.584 2.244zM625.132 655.814l2.936 24.552h28.084v-8.646h-19.040l-1.092-9.537c0.792 0.462 1.828 0.869 3.104 1.221 1.296 0.352 2.564 0.528 3.796 0.528 4.772 0 8.436-1.419 10.988-4.257 2.572-2.816 3.86-6.776 3.86-11.88 0-3.080-0.692-5.874-2.080-8.382-1.364-2.486-3.288-4.4-5.772-5.742-2.488-1.342-5.424-2.013-8.812-2.013-3.016 0-5.84 0.616-8.48 1.848-2.64 1.254-4.708 2.959-6.204 5.115-1.496 2.178-2.236 4.631-2.212 7.359h11.152c0.112-1.76 0.672-3.157 1.684-4.191s2.344-1.551 3.992-1.551c3.74 0 5.612 2.772 5.612 8.316 0 5.126-2.288 7.689-6.864 7.689-2.596 0-4.532-0.836-5.808-2.508l-8.844 2.079z" />
<glyph unicode="&#xe902;" glyph-name="checklist-outline" data-tags="checklist-outline" d="M427.080 561.058h206.92c5.992 0 10.928-6.99 10.928-12.99s-4.936-12.992-10.928-12.992h-206.92c-5.992 0-10.928 6.992-10.928 12.992s4.936 12.99 10.928 12.99zM317.804 512.416h54.638c5.288 0 9.518 4.236 9.87 9.532v32.164l-29.032-29.484c-3.525-3.532-7.275-3.532-10.8 0l-16.148 16.168c-3.525 3.528-8.892 9.596 0 18.5 7.478 7.487 12.909 3.529 16.434 0l5.707-5.72 24.037 23.722c2.318 2.322 6.286 2.23 9.733 0.892-0.571 4.734-4.557 8.358-9.448 8.358h-54.99c-5.287 0-9.518-4.236-9.518-9.531v-55.068c0-5.296 4.23-9.532 9.518-9.532zM317.804 226.412h54.638c5.288 0 9.518 4.236 9.87 9.532v32.168l-29.032-29.484c-3.525-3.532-7.275-3.532-10.8 0l-16.148 16.168c-3.525 3.528-8.892 9.596 0 18.5 7.478 7.488 12.909 3.528 16.434 0l5.707-5.72 24.037 23.72c2.318 2.324 6.285 2.232 9.732 0.892-0.573 4.732-4.558 8.356-9.447 8.356h-54.99c-5.287 0-9.518-4.236-9.518-9.532v-55.068c0-5.296 4.23-9.532 9.518-9.532zM427.080 425.472h206.92c5.992 0 10.928-6.988 10.928-12.992 0-6-4.936-12.988-10.928-12.988h-206.92c-5.992 0-10.928 6.988-10.928 12.988 0 6.004 4.936 12.992 10.928 12.992zM317.804 369.772c-5.287 0-9.518 4.236-9.518 9.532v55.068c0 5.296 4.23 9.532 9.518 9.532h54.99c5.288 0 9.518-4.236 9.518-9.532v-55.068c-0.352-5.296-4.582-9.532-9.87-9.532h-54.638zM333.678 391.344h22.674c2.194 0 3.95 1.752 4.096 3.948v22.82c0 2.196-1.756 3.952-3.95 3.952h-22.821c-2.194 0-3.95-1.756-3.95-3.952v-22.82c0-2.196 1.756-3.948 3.95-3.948zM516.968 269.772h-89.888c-5.992 0-10.928-6.988-10.928-12.988 0-6.004 4.936-12.992 10.928-12.992h84.248c1.056 7.412 3.172 18.92 5.64 25.98zM530.364 796.162h-41.948c-3.524 6.001-9.872 10.237-17.624 10.237-7.756 0-14.1-4.236-17.628-10.237h-41.948c-15.861 0-28.551-12.708-28.551-28.593v-17.297c0-15.532 12.69-28.593 28.551-28.593h119.5c15.512 0 28.552 12.708 28.552 28.593v17.297c-0.352 15.885-13.040 28.593-28.904 28.593zM526.268 746.955h-110.956c-3.876 0-7.4 3.177-7.4 7.413v9.105c0 3.883 3.172 7.413 7.4 7.413h111.308c3.876 0 7.908-3.259 7.908-7.495v-9.216c0-5.12-3.812-7.22-8.26-7.22zM582.888 723.514h68.164c13.044 0 23.62-10.59 23.62-23.651v-336.479c7.4-1.412 18.548-3.176 25.244-5.292v343.819c0 24.71-20.092 44.831-44.768 44.831h-72.26c-5.992 0-10.576-4.589-10.576-10.59s4.936-12.638 10.576-12.638zM520.492 168.392h-229.964c-13.043 0-23.618 10.588-23.618 23.648v505.775c0 13.061 10.575 23.651 23.618 23.651h66.757c5.993 0 8.527 9.158 8.527 12.638 0 6.001-4.582 12.638-10.575 12.638h-68.805c-24.675 0-44.768-20.121-44.768-44.831v-513.967c0-24.708 20.093-44.828 44.768-44.828h245.34c-4.58 6.704-8.104 17.86-11.28 25.276zM620.032 314.248l0.512-112.008 74.992-76.068c-14.804-7.412-25.228-7.552-41.796-7.552-58.164 0-101.656 43.56-101.656 101.804-0.352 48.36 23.536 81.116 67.948 93.824zM645.28 347.504c-66.272-4.236-118.792-59.304-118.792-126.728 0-70.244 56.752-127.080 126.9-127.080 31.020 0 59.22 10.944 81.076 29.3l-89.184 89.308v135.2zM780.288 233.628c0 58.724-56.32 110.948-110.248 113.876v-120.584l110.248 6.708zM683.652 207.008l65.836-65.584c16.464 16.784 28.752 43.408 28.752 67.84l-94.588-2.256zM366.147 658.942c0 6.786 5.502 12.288 12.288 12.288h14.1c6.786 0 12.289-5.502 12.289-12.288s-5.502-12.288-12.289-12.288h-14.1c-6.786 0-12.288 5.502-12.288 12.288zM420.784 658.942c0 6.786 5.504 12.288 12.288 12.288h126.904c6.784 0 12.288-5.502 12.288-12.288s-5.504-12.288-12.288-12.288h-126.904c-6.784 0-12.288 5.502-12.288 12.288z" />
<glyph unicode="&#xe903;" glyph-name="enroll-outline" data-tags="enroll-outline" d="M668.196 553.296l-5.98 3.74c-39.164 24.496-90.040 38.337-145.132 38.337-141.589 0-248.726-95.333-248.726-204.381 0-57.272 27.314-109.668 74.732-147.316l0.026-0.024 0.026-0.020c4.26-3.4 6.715-7.5 7.709-9.216 1.32-2.284 2.432-4.676 3.342-6.804 1.834-4.288 3.658-9.44 5.392-14.68 2.558-7.736 5.374-17.076 8.167-26.336 0.986-3.272 1.968-6.532 2.936-9.708 3.826-12.56 7.446-23.924 10.666-32.060h17.603c0.711 2.66 1.456 5.62 2.22 8.784 0.568 2.336 1.168 4.864 1.764 7.396 1.012 4.268 2.024 8.54 2.876 11.872 0.688 2.668 1.508 5.7 2.416 8.276 0.396 1.136 1.192 3.312 2.456 5.58 0.588 1.052 1.932 3.336 4.212 5.672 1.828 1.868 7.928 7.556 17.868 7.556h3.148l3.052-0.796c31.144-8.12 47.82-11.104 74.624-11.104 40.756 0 79.944 6.648 96.648 10.2l2.528 0.536h2.584c7.716 0 13.152-3.46 15.82-5.62 2.7-2.184 4.392-4.464 5.248-5.72 1.732-2.536 2.788-5.004 3.312-6.284 1.164-2.852 2.136-6.104 2.892-8.796 1.132-4.028 2.396-9.136 3.612-14.040 0.448-1.796 0.884-3.564 1.308-5.244 0.82-3.252 1.6-6.26 2.34-8.94 1.688-0.072 3.304-0.152 4.84-0.232 0.712-0.036 1.396-0.072 2.056-0.104 3.704-0.192 6.656-0.344 9.22-0.408 0.028 0.080 0.056 0.156 0.084 0.236 1.96 5.772 4.184 12.84 6.628 20.6 0.824 2.62 1.676 5.324 2.548 8.080 3.352 10.576 7.020 21.896 10.496 31.056 1.724 4.536 3.612 9.12 5.604 13.052 0.992 1.956 2.24 4.208 3.752 6.384 1.24 1.788 3.868 5.336 8.096 8.232 32.432 22.372 57.672 40.652 78.088 56.576-3.192 0.62-6.184 1.192-8.832 1.696-3.284 0.624-6.028 1.136-7.948 1.496-0.956 0.176-1.708 0.316-2.22 0.412l-0.76 0.14h-0.008c-11.588 2.124-20.040 12.172-20.144 23.952s8.164 21.98 19.712 24.312l3.592-17.792c-3.592 17.792-3.592 17.792-3.592 17.792v0h0.012l0.824 0.168c0.548 0.112 1.36 0.276 2.396 0.488 2.072 0.424 5.036 1.028 8.604 1.764 7.144 1.476 16.676 3.464 26.268 5.532 9.632 2.072 19.168 4.192 26.38 5.928 0.856 0.208 1.66 0.404 2.42 0.592 0.24 1.668 0.316 3.472 0.316 5.256v38.728c-7.332 0.212-17.568 1.324-27.516 6.524l-0.192 0.1-0.188 0.104c-29.36 16.016-51.052 39.412-65.068 63.292-13.712 23.36-21.324 49.392-19.468 71.468 1.112 13.528 4.016 26.939 7.404 38.926-3.22-1.595-6.316-3.233-9.256-4.872-7.324-4.081-13.356-7.978-17.552-10.838-2.088-1.425-3.72-2.59-4.836-3.4-0.4-0.292-0.696-0.504-0.972-0.708-0.14-0.104-0.276-0.2-0.42-0.308-0.152-0.108-0.444-0.32-0.732-0.524-0.108-0.076-0.48-0.336-0.94-0.632-0.188-0.124-0.78-0.5-1.56-0.924-0.36-0.196-1.2-0.648-2.316-1.112-0.004 0-0.012-0.004-0.024-0.012-0.348-0.152-4.26-1.88-9.432-1.88h-7.052zM733.944 609.785c1.816 0.656 3.66 1.287 5.52 1.89 7.68 2.487 15.704 4.483 23.88 5.663 0.048 0 0.056-0.074 0.032-0.219-0.008-0.040-0.020-0.086-0.032-0.138-0.2-0.76-1.012-2.714-2.224-5.626-1.676-4.015-4.108-9.853-6.732-16.903-0.532-1.43-1.072-2.909-1.616-4.433-5.284-14.827-10.868-33.887-12.4-52.483-2.616-31.048 21.808-83.864 71.816-111.14 6.104-3.192 13.084-3.772 19.48-3.772h8.14c7.56 0 13.084-0.872 13.084-7.256v-56.004c0-6.096-0.58-18.284-8.14-25.828-0.792-0.788-8.272-2.736-18.336-5.076-23.3-5.412-60.456-12.916-60.456-12.916s21.208-3.888 40.052-7.796c1.66-0.344 3.304-0.688 4.912-1.032 5.828-1.24 11.2-2.448 15.356-3.496 3.68-0.932 6.404-1.736 7.636-2.328 0.008-0.008 0.020-0.012 0.028-0.016 0.6-0.292 0.832-0.532 0.632-0.712-5.68-5.168-11.776-10.472-18.396-15.996-1.18-0.98-2.372-1.972-3.588-2.968-23.7-19.492-53.988-41.792-95.476-70.412-5.064-3.42-13.52-30.284-20.888-53.684-5.752-18.264-10.836-34.42-13.132-35.692-3.488-2.032-8.432-2.612-14.536-2.612-3.828 0-8.164 0.224-13.024 0.476-6.212 0.32-13.292 0.684-21.284 0.684-3.816 0-8.204 17.684-11.968 32.86-2.828 11.412-5.308 21.404-6.932 21.404-17.732-3.772-58.728-10.736-101.76-10.736-29.656 0-48.552 3.484-80.824 11.9-1.172 0-3.288-8.944-5.812-19.624-3.744-15.844-8.396-35.512-12.216-35.512h-46.228c-6.427 0-15.844 31.232-24.384 59.56-6.527 21.648-12.542 41.6-16.32 44.616-52.624 41.788-84.025 100.984-84.025 166.564 0 126.524 122.403 228.957 273.302 228.957 59.020 0 114.552-14.799 158.164-42.077 0.024 0 0.32 0.217 0.868 0.619 4.728 3.456 28.176 20.595 57.828 31.293zM842.24 397.972c0.072-0.008 0.056-0.008-0.028 0.004 0.012 0 0.020-0.004 0.028-0.004zM384.785 137.344c-0.001 0-0.023 0.032-0.066 0.1 0.045-0.064 0.067-0.096 0.066-0.1zM509.232 768.428c-27.492 0-49.64-22.118-49.64-49.231s22.148-49.231 49.64-49.231c27.492 0 49.64 22.118 49.64 49.231s-22.148 49.231-49.64 49.231zM435.016 719.197c0 40.839 33.304 73.807 74.216 73.807s74.216-32.968 74.216-73.807c0-40.839-33.304-73.807-74.216-73.807s-74.216 32.968-74.216 73.807zM422.488 511.6c0.004 0 0.008 0-2.804 11.964-2.812 11.96-2.812 11.96-2.808 11.964l0.032 0.004 0.288 0.068c0.184 0.044 0.448 0.1 0.784 0.176 0.676 0.148 1.648 0.352 2.908 0.608 2.512 0.504 6.16 1.196 10.808 1.956 9.292 1.524 22.612 3.34 38.9 4.552 32.536 2.412 77.176 2.428 125.38-7.284l-4.856-24.092c-45.416 9.152-87.708 9.168-118.704 6.868-15.472-1.152-28.068-2.872-36.744-4.296-4.336-0.708-7.692-1.344-9.932-1.796-1.12-0.228-1.96-0.408-2.508-0.524-0.272-0.060-0.472-0.108-0.596-0.136l-0.128-0.028-0.020-0.004zM700.54 422.624c11.564 0 20.936 9.352 20.936 20.892s-9.372 20.896-20.936 20.896c-11.56 0-20.932-9.356-20.932-20.896s9.372-20.892 20.932-20.892zM183.365 432.464c-4.595-8.784-1.764-19.492 6.203-24.88l9.78 18.004c0.788-0.428 1.79-0.544 2.824-0.228s1.798 0.976 2.212 1.772l0.024 0.044 0.024 0.048c2.020 3.808 0.611 8.532-3.246 10.616-6.583 3.308-14.347 0.86-17.822-5.376zM225.737 414.96c3.946 1.072 8.235 1.836 12.775 1.96l0.164 0.004h14.252v-24.576h-13.911c-6.205-0.196-10.918-2.308-17.479-5.248-1.682-0.752-3.487-1.56-5.468-2.404-4.434-1.888-9.946-3.936-16.191-4.396-6.554-0.48-13.24 0.816-20.048 4.508-21.42 11.344-29.419 37.932-18.141 59.236l0.043 0.084 0.044 0.080c9.906 18.056 32.293 24.864 50.669 15.48l0.152-0.080c15.845-8.372 21.969-27.964 13.57-43.856-0.14-0.268-0.284-0.532-0.431-0.792z" />
<glyph unicode="&#xe904;" glyph-name="finger-tap-outline" data-tags="finger-tap-outline" d="M458.956 747.418c-66.969 0-121.446-54.477-121.446-121.446 0-43.542 23.030-81.804 57.549-103.244v31.336c-19.96 17.647-32.563 43.434-32.563 72.112 0 53.079 43.176 96.256 96.256 96.256s96.256-43.177 96.256-96.256c0-15.47-3.668-30.099-10.18-43.063l22.944-11.052c8.084 16.252 12.632 34.559 12.632 53.91 0 66.97-54.476 121.446-121.448 121.446zM458.956 802.305c-97.279 0-176.332-79.053-176.332-176.333 0-74.752 46.678-138.74 112.435-164.368v27.048c-51.849 24.092-87.859 76.656-87.859 137.525 0 83.609 67.943 151.552 151.552 151.552 83.432 0 151.552-67.943 151.552-151.552 0-24.070-5.632-46.842-15.644-67.069l22.572-10.872c11.56 23.458 18.056 49.848 18.056 77.736 0 97.28-79.256 176.333-176.332 176.333zM457.728 645.018c9.82-0.209 19.252-4.506 19.252-16.179s0-211.966 0-211.966h31.332v91.544c0 15.36 6.76 28.056 27.24 28.056 17.408 0 21.504-17.408 21.504-31.744v-99.532h31.336v73.524c0 0-2.664 23.96 26.008 23.96 20.48 0 22.528-17.816 22.528-26.008 0-21.708 0-90.316 0-90.316h30.72v60.416c0 0-3.48 22.528 26.216 22.528 22.936 0 22.936-21.916 22.936-23.348 0-3.072 0-155.648 0-155.648l-34.816-101.376c0 0-9.216-25.396-9.216-46.284 0-20.892 0-24.372 0-24.372h-201.728c0 0 0 40.14-20.48 70.86-29.492 44.236-124.928 182.476-124.928 182.476s-13.312 13.928-3.072 26.216c5.12 6.144 8.247 5.996 14.336 6.144 6.459 0.156 15.36-6.144 15.36-6.144l86.016-81.92v315.392c1.028 9.241 10.16 13.919 19.456 13.722zM457.728 669.184c-30.516 0-42.804-22.118-43.828-37.068v-259.891l-50.585 49.972-1.434 0.82c-1.229 0.816-13.312 7.78-27.238 7.78-11.674 0-21.504-4.708-28.672-13.312-18.227-22.116-11.264-44.644-5.12-53.656 2.048-2.868 95.846-138.856 124.725-182.068 25.804-38.504 21.912-71.064 21.708-71.476l-2.46-16.384h253.136v49.356c0 17.82 5.324 31.952 5.324 32.156l37.476 102.604v178.584c0 14.544-11.672 37.684-43.008 37.684-17.612 0-29.284-6.552-36.248-14.948 0 11.264-0.408 21.912-5.736 31.128-10.032 17.204-31.332 17.204-38.5 17.204-17.612 0-27.852-6.76-33.18-12.288-0.612-0.82-1.432-1.436-2.048-2.252v1.432c-0.408 18.432-12.492 45.875-43.824 45.875-18.228 0-30.108-8.603-36.864-19.047v87.45c0 5.939 0 16.794-6.964 26.214-6.964 9.626-13.108 14.131-36.66 14.131z" />
<glyph unicode="&#xe905;" glyph-name="meter-gauge-outline" data-tags="meter-gauge-outline" d="M512 782.261c183.316 0 332.212-148.897 332.212-332.213 0-183.312-148.896-332.212-332.212-332.212s-332.212 148.9-332.212 332.212c0 183.316 148.897 332.213 332.212 332.213zM512 808.449c-197.532 0-358.4-160.868-358.4-358.401s160.868-358.4 358.4-358.4c197.532 0 358.4 160.868 358.4 358.4s-160.868 358.401-358.4 358.401zM308.857 570.513l8.979 15.339 9.727-5.612-17.209-28.808-49.757 29.182 7.856 13.468 40.404-23.569zM292.77 628.502l8.604 10.101c5.612 6.734 11.223 7.482 17.209 2.993l26.936-22.821c5.612-4.864 5.612-10.475 0-17.209l-8.604-10.101c-5.612-6.734-11.224-7.482-17.209-2.993l-26.936 22.821c-5.612 4.49-5.612 10.475 0 17.209zM333.548 607.552l-23.943 20.202c-1.122 0.748-1.87 0.748-2.993-0.374l-2.245-2.619c-1.122-1.122-1.122-2.245 0-2.993l23.943-20.202c1.122-0.748 1.871-0.748 2.993 0.374l2.618 2.993c0.748 0.748 0.748 1.87-0.374 2.619zM367.218 693.596l12.72 8.979 23.194-54.246-14.589-10.475-25.066 24.317 14.59-31.8-14.59-10.475-43.397 40.404 13.468 9.353 26.188-28.807-16.087 36.289 12.72 8.979 28.433-27.31-17.584 34.792zM663.888 688.358l13.096-8.23-29.928-49.383-13.096 8.231 11.972 19.454-9.728 5.986-11.972-19.454-13.092 8.23 29.928 49.383 13.096-8.231-12.348-20.202 9.728-5.986 12.344 20.202zM687.46 671.524l11.972-10.101-37.040-44.145-11.972 10.101 37.040 44.146zM720.756 610.916l-10.476 11.598 5.612 4.864c1.12 0.748 1.12 1.87 0 2.993l-2.244 2.245c-1.124 1.122-1.872 1.122-2.996 0.374l-24.688-22.073c-1.124-0.748-1.124-1.87 0-2.993l2.244-2.245c1.12-1.122 1.868-1.122 2.992-0.374l7.108 6.36-2.992 3.367 7.48 6.734 13.468-14.964-15.336-13.842c-5.612-4.864-11.224-4.115-17.212 2.244l-8.604 9.353c-5.984 6.734-5.984 12.346-0.372 17.209l26.188 23.569c5.612 4.864 11.224 4.115 17.208-2.245l8.604-9.353c5.988-6.734 5.988-12.346 0.376-17.209l-6.36-5.612zM757.792 589.22l7.856-13.094-49.756-29.554-7.856 13.467 19.452 11.598-5.612 9.727-19.452-11.598-7.856 13.468 49.756 29.555 7.856-13.468-20.2-11.972 5.608-9.727 20.204 11.598zM430.816 215.104v-36.66h-17.208v94.276h34.792c10.848 0 16.46-4.864 16.46-14.964v-28.060c0-8.232-3.74-13.096-10.848-14.216l15.712-37.412h-18.704l-14.216 36.664h-5.988v0.372zM430.816 259.624v-31.8h12.348c1.496 0 2.616 0.376 3.364 0.748 0.752 0.376 0.752 1.496 0.752 3.368v23.568c0 1.496-0.376 2.62-0.752 3.368-0.748 0.376-1.868 0.748-3.364 0.748h-12.348zM478.704 272.72h17.208v-94.276h-17.208v94.276zM541.18 195.652v20.204c0 1.496-0.372 2.616-0.748 3.364-0.748 0.376-1.872 0.748-3.368 0.748h-11.972c-10.1 0-15.336 4.864-15.336 14.968v23.192c0 9.728 5.236 14.964 16.084 14.964h16.464c10.848 0 16.084-4.86 16.084-14.964v-13.092h-17.208v10.848c0 1.496-0.372 2.62-0.748 3.368-0.748 0.372-1.872 0.748-3.368 0.748h-5.612c-1.868 0-2.992-0.376-3.364-0.748-0.748-0.376-0.748-1.496-0.748-3.368v-19.080c0-1.496 0.372-2.616 0.748-3.368 0.748-0.372 1.868-0.748 3.364-0.748h11.972c10.476 0 15.712-4.86 15.712-14.588v-24.692c0-9.728-5.608-14.964-16.46-14.964h-16.088c-10.848 0-16.46 4.864-16.46 14.964v13.092h17.212v-10.472c0-1.496 0.372-2.62 0.748-3.368 0.748-0.376 1.868-0.748 3.364-0.748h5.612c1.496 0 2.62 0.372 3.368 0.748 0.376 0.372 0.748 1.496 0.748 2.992zM570.736 178.444v94.276h17.208v-94.276h-17.208zM626.104 272.72l-19.452-47.14 19.452-47.512h-18.704l-18.708 47.512 18.708 47.14h18.704zM505.324 760.44v22.408h24.576v-22.408c0-6.786-5.5-12.288-12.288-12.288s-12.288 5.502-12.288 12.288zM524.288 507.392l13.312-152.576c-4.624-15.3-15.392-23.256-31.744-20.48-14.468 2.456-26.524 9.316-27.648 27.648 19.836 56.732 27.068 88.388 46.080 145.408zM529.956 597.82c-26.936-78.188-53.496-156.004-80.432-234.196-0.376-28.804 21.324-53.496 49.38-57.612 2.62-0.372 4.864-0.372 7.484-0.372 26.188 0 49.756 18.328 56.116 44.892l-22.82 246.166c-2.992 0.374-6.36 0.748-9.728 1.122zM821.248 329.216h-215.040l-41.984-24.576h257.024v24.576zM417.792 329.216h-215.040v-24.576h258.048l-43.008 24.576zM507.904 372.224c-6.88 0-12.288-5.408-12.288-12.288 0-6.884 5.408-12.288 12.288-12.288s12.288 5.404 12.288 12.288c0 6.88-5.408 12.288-12.288 12.288z" />
<glyph unicode="&#xe906;" glyph-name="pen-outline" data-tags="pen-outline" d="M807.34 709.92c1.072 0.534 2.308 0.958 3.548 1.143 2.192 0.329 4.304-0.014 6.492-2.202 5-5.001 9.768-10.017 14.644-15.152l0.052-0.055c4.836-5.087 9.78-10.292 15-15.512 1.328-1.328 1.544-2.501 0.952-4.637-0.324-1.163-0.848-2.278-1.34-3.146-0.136-0.237-0.26-0.44-0.364-0.602l-423.308-431.433-60.382-18.188 23.897 63.48 377.504 383.013 18.6-18.257 15.78 16.078-18.572 18.23c2.26 2.297 4.824 4.903 7.444 7.564 7.96 8.083 16.364 16.609 18.372 18.618 0-0.002 0.544 0.489 1.68 1.058zM855.040 662.555c8.928-6.868 8.932-6.864 8.932-6.86l0.008 0.008 0.012 0.017 0.028 0.038 0.072 0.092c0.048 0.068 0.112 0.15 0.18 0.246 0.14 0.191 0.312 0.438 0.516 0.736 0.4 0.594 0.92 1.405 1.484 2.399 1.108 1.948 2.504 4.801 3.46 8.246 1.968 7.080 2.184 17.683-6.728 26.596-5 5.002-9.768 10.018-14.644 15.154l-0.044 0.044c-4.836 5.091-9.784 10.3-15.008 15.523-8.052 8.052-17.716 9.757-25.764 8.55-7.448-1.117-14.020-4.759-17.812-8.551-2.088-2.088-10.58-10.704-18.496-18.74-2.72-2.763-5.38-5.465-7.7-7.824-3.66 3.323-8.228 7.395-12.94 11.398-5.388 4.578-11.224 9.288-16.192 12.677-2.424 1.652-5.092 3.303-7.644 4.416-1.248 0.544-3.008 1.202-5.028 1.48-1.84 0.253-5.688 0.43-9.368-2.158-5.512-3.879-11.292-10.296-16.944-17.4-5.836-7.33-12.236-16.313-18.936-26.085-5.536-8.069-11.224-16.589-17.044-25.31-8.556-12.823-17.404-26.080-26.488-38.977-15.2-21.586-29.904-40.442-42.7-51.803-6.468-5.74-11.504-8.696-15.060-9.696-2.796-0.784-4.056-0.316-5.44 0.94-4.604 4.186-11.728 3.847-15.912-0.756-4.184-4.604-3.844-11.728 0.76-15.912 7.908-7.188 17.488-8.544 26.684-5.964 8.424 2.368 16.52 7.968 23.924 14.54 14.944 13.266 30.94 34.062 46.164 55.68 9.128 12.962 18.396 26.844 27.16 39.964 5.792 8.679 11.364 17.024 16.528 24.551 6.616 9.648 12.66 18.105 17.988 24.801 3.204 4.031 5.936 7.137 8.184 9.401 0.152-0.104 0.312-0.211 0.476-0.323 3.964-2.701 9.072-6.789 14.304-11.234 4.188-3.559 8.292-7.206 11.704-10.294l-380.584-386.138-41.638-110.604 109.598 33.012 39.924 41 388.952 396.255-8.928 6.868zM717.636 706.116c0 0.001 0.016-0.005 0.052-0.019-0.032 0.011-0.052 0.018-0.052 0.019zM396.393 267.392l15.947-17.624-24.34-7.556 8.393 25.18zM213.022 244.908c-1.010 6.636-2.358 14.328-3.984 21.62-0.806 3.612-1.648 6.976-2.507 9.98-1.35-6.392-2.305-14.236-2.912-22.672-0.012-0.168-0.024-0.336-0.036-0.504 2.347-2.064 4.895-4.308 7.676-6.78 0.608-0.54 1.196-1.088 1.763-1.644zM182.957 272.504c0.603 4.092 1.33 8.016 2.204 11.644 1.023 4.24 2.318 8.38 4.012 12.020 1.626 3.496 4.029 7.432 7.735 10.284 2.27 1.744 5.325 3.208 9.015 3.304 3.687 0.1 6.76-1.196 9.011-2.74 4.016-2.752 6.521-7.028 8.081-10.192 3.369-6.84 5.999-16.376 8.010-25.392 2.066-9.264 3.682-18.944 4.78-26.596 1.038-7.236 1.762-13.672 1.762-15.92v0c0-0.004 0.001-0.1 0.007-0.32 0.006-0.208 0.017-0.48 0.033-0.82 0.032-0.672 0.083-1.556 0.158-2.596 0.152-2.092 0.396-4.752 0.765-7.604 0.304-2.352 0.682-4.76 1.144-7.040 1.978 3.724 4.267 8.736 6.868 15.34 2.722 6.908 5.307 12.436 7.967 16.292 1.313 1.904 3.142 4.148 5.655 5.816 2.803 1.868 6.82 3.2 11.335 2.028 4.009-1.044 6.561-3.616 7.932-5.312 1.441-1.78 2.501-3.748 3.283-5.396 1.552-3.268 2.958-7.376 4.221-11.080l0.094-0.276c2.731-8.016 5.422-15.912 9.275-21.968 3.754-5.9 7.149-7.836 10.894-7.836h4.096c6.221 0 11.264-5.040 11.264-11.264 0-6.22-5.043-11.264-11.264-11.264h-4.096c-14.687 0-24.118 9.184-29.9 18.268-4.608 7.244-7.812 15.808-10.2 22.716-3.292-8.26-6.376-14.812-9.314-19.84-2.924-5.004-6.258-9.492-10.325-12.344-2.158-1.516-4.905-2.84-8.169-3.184-3.405-0.364-6.573 0.428-9.228 1.924-4.742 2.68-7.284 7.264-8.643 10.26-0.716 1.58-1.347 3.288-1.904 5.056-0.359-0.56-0.73-1.104-1.109-1.628-3.963-5.48-10.439-11.032-18.247-11.824-4.408-0.448-9.441 0.704-13.38 4.616-3.666 3.64-5.080 8.384-5.482 12.612-0.876 9.204-1.38 25.036-0.782 41.396-0.765 0.68-1.513 1.356-2.246 2.016 1.516-10.732 2.24-21.8 0.932-31.112-0.893-6.352-2.921-13.388-7.696-18.784-5.335-6.032-12.799-8.58-21.075-7.752l2.242 22.416c1.182-0.12 1.665 0.048 1.727 0.068 0.002 0.004 0.004 0.004 0.006 0.004 0.023 0.008 0.078 0.024 0.228 0.192 0.533 0.6 1.633 2.528 2.26 6.992 1.245 8.86-0.118 21.836-2.712 35.5-2.533 13.344-5.978 26.088-8.165 34.068-0.088 0.32-0.174 0.632-0.258 0.94-0.434 1.58-0.82 2.992-1.12 4.12-0.284 1.072-0.708 2.672-0.886 3.892l-0.004 0.024c-0.038 0.256-0.201 1.356-0.104 2.68 0 0.008 0.002 0.020 0.002 0.032 0.034 0.48 0.199 2.804 1.724 5.216 0.938 1.484 2.674 3.432 5.521 4.52 2.887 1.1 5.558 0.796 7.376 0.228 2.899-0.9 4.59-2.732 4.922-3.092 0.009-0.008 0.018-0.020 0.025-0.028 0.58-0.624 0.972-1.184 1.156-1.456 0.39-0.58 0.672-1.108 0.811-1.372 0.539-1.028 1.195-2.54 1.862-4.116 5.291-12.504 9.551-19.276 15.407-25.78 0.167-0.188 0.335-0.372 0.505-0.556zM203.8 203.888c0.001 0-0.003 0.016-0.012 0.048 0.007-0.032 0.012-0.048 0.012-0.048zM273.402 229.84c0.012 0.012 0.018 0.020 0.018 0.020s-0.006-0.008-0.018-0.020zM534.796 433.468l39.985-39.985-16.263-16.263-39.985 39.985 16.263 16.263z" />
<glyph unicode="&#xe907;" glyph-name="quick-enroll-outline" data-tags="quick-enroll-outline" d="M447.484 706.057c-150.702 0-273.010-122.16-273.010-273.237 0-151.080 122.308-273.24 273.010-273.24 12.124 0 23.876 0.932 35.82 2.368 6.74 0.808 12.856-3.996 13.668-10.736 0.808-6.736-4-12.856-10.736-13.664-12.584-1.512-25.364-2.544-38.752-2.544-164.28 0-297.586 133.168-297.586 297.816 0 164.645 133.306 297.813 297.586 297.813 125.916 0 233.616-78.38 277.104-188.721 2.488-6.316-0.612-13.452-6.928-15.94-6.312-2.488-13.448 0.612-15.936 6.928-39.92 101.286-138.772 173.157-254.24 173.157zM561.892 808.555c2.308-2.305 3.608-5.435 3.608-8.699v-94.191c0 0-3.608 2.431-12.288 5.503-7.42 2.626-12.288 5.12-12.288 5.12v71.252l-193.015-0.436v-73.889c0 0-5.893-2.048-12.288-4.096s-12.288-5.12-12.288-5.12v95.365c0 6.776 5.484 12.272 12.26 12.288l217.591 0.491c3.264 0.008 6.396-1.284 8.708-3.589zM447.488 658.942c7.352 0 13.312 5.96 13.312 13.312s-5.96 13.312-13.312 13.312c-7.352 0-13.312-5.96-13.312-13.312s5.96-13.312 13.312-13.312zM447.488 181.76c7.352 0 13.312 5.96 13.312 13.312s-5.96 13.312-13.312 13.312c-7.352 0-13.312-5.96-13.312-13.312s5.96-13.312 13.312-13.312zM224.256 419.328c-7.352 0-13.312 5.96-13.312 13.312s5.96 13.312 13.312 13.312c7.352 0 13.312-5.96 13.312-13.312s-5.96-13.312-13.312-13.312zM309.8 648.923c5.86 3.422 13.386 1.446 16.808-4.415l11.039-18.904c3.422-5.86 1.446-13.386-4.415-16.808s-13.386-1.446-16.808 4.415l-11.039 18.904c-3.422 5.86-1.446 13.386 4.415 16.808zM588.044 648.418c5.716-3.656 7.388-11.255 3.732-16.972l-11.776-18.413c-3.656-5.718-11.256-7.388-16.972-3.732s-7.388 11.255-3.732 16.972l11.776 18.413c3.656 5.718 11.252 7.388 16.972 3.732zM222.229 557.112c3.426 5.859 10.953 7.83 16.811 4.404l18.889-11.048c5.858-3.424 7.83-10.952 4.403-16.812-3.426-5.856-10.953-7.828-16.811-4.4l-18.889 11.048c-5.858 3.424-7.83 10.952-4.403 16.808zM675.436 554.168c3.428-5.86 1.456-13.384-4.404-16.812l-18.888-11.048c-5.86-3.424-13.384-1.452-16.812 4.404-3.424 5.86-1.456 13.384 4.404 16.812l18.888 11.048c5.86 3.425 13.384 1.454 16.812-4.404zM263.068 334.98c2.914-6.128 0.307-13.46-5.822-16.372l-19.625-9.328c-6.129-2.916-13.46-0.308-16.374 5.82s-0.307 13.46 5.822 16.372l19.625 9.332c6.129 2.912 13.46 0.308 16.374-5.824zM333.507 256.768c5.683-3.708 7.282-11.324 3.572-17.004l-12.020-18.416c-3.71-5.68-11.324-7.28-17.007-3.572-5.683 3.712-7.282 11.324-3.572 17.008l12.020 18.412c3.71 5.684 11.324 7.284 17.007 3.572zM448.22 452.94c-10.816 0-19.604-8.78-19.604-19.628 0-10.852 8.788-19.628 19.604-19.628s19.6 8.78 19.6 19.628c0 10.848-8.784 19.628-19.6 19.628zM404.040 433.312c0 24.404 19.772 44.204 44.18 44.204s44.176-19.8 44.176-44.204c0-24.404-19.768-44.204-44.176-44.204s-44.18 19.8-44.18 44.204zM435.2 389.632c6.416-2.208 13.312-1.024 13.312-1.024l-37.736-108.072c-2.208-6.416-9.204-9.828-15.619-7.62-6.417 2.212-9.828 9.204-7.619 15.62l37.422 106.216c0 0 3.824-2.908 10.24-5.12zM448.22 606.652c6.784 0 12.288-5.502 12.288-12.288v-118.716c0 0-5.504 2.048-12.288 2.048-6.788 0-12.288-2.048-12.288-2.048v118.716c0 6.786 5.5 12.288 12.288 12.288zM590.096 497.096c2.28 3.412 6.112 5.464 10.216 5.464h171.228c4.096 0 7.924-2.044 10.208-5.448 2.28-3.404 2.716-7.72 1.156-11.512l-28.944-70.46c-1.896-4.608-6.384-7.62-11.368-7.62h-113.088c-4.968 0-9.452 2.996-11.352 7.588l-29.192 70.46c-1.572 3.792-1.144 8.116 1.136 11.528zM618.704 477.984l19.008-45.888h96.644l18.852 45.888h-134.504zM536.864 263.884c-7.692-17.932-12.084-34.812-12.084-48.828 0-25.004 3.364-66.512 37.516-87.46 14.052-8.476 36.388-17.112 59.604-17.112h130.016c28.876 0 47.816 8.896 59.488 16.968l0.064 0.044c33.064 22.552 38.060 63.364 38.060 87.316 0 14.008-4.524 30.892-12.432 48.868-7.84 17.828-18.668 35.956-30.436 52.228-11.784 16.292-24.264 30.388-35.236 40.26-5.5 4.952-10.38 8.62-14.392 10.98-2 1.172-3.612 1.924-4.84 2.36-1.144 0.404-1.692 0.448-1.748 0.452-0.008 0-0.004 0 0 0h-127.072c-0.64 0-2.98-0.4-7.328-2.884-4.108-2.352-9.028-6-14.532-10.924-10.98-9.832-23.308-23.88-34.888-40.14-11.556-16.232-22.124-34.328-29.76-52.128zM603.844 388.408c5.84 3.34 12.624 6.128 19.528 6.128h127.072c6.788 0 13.452-2.916 19.040-6.2 5.9-3.468 12.128-8.272 18.38-13.9 12.532-11.276 26.144-26.752 38.708-44.124 12.58-17.396 24.352-37.028 33.020-56.736 8.608-19.568 14.512-40 14.512-58.764 0-25.148-4.82-77.608-48.756-107.6-15.312-10.58-39.048-21.304-73.432-21.304h-130.016c-28.772 0-55.48 10.496-72.34 20.672l-0.068 0.040c-46.772 28.652-49.288 83.856-49.288 108.436 0 18.636 5.696 38.984 14.076 58.52 8.44 19.672 19.936 39.292 32.328 56.692 12.368 17.376 25.876 32.88 38.512 44.196 6.308 5.644 12.644 10.468 18.724 13.944zM712.68 206.036c0 4.576-1.908 8.076-5.724 10.5-3.812 2.476-10.676 5.060-20.592 7.756-9.916 2.744-17.764 5.436-23.548 8.076-15.764 7.216-23.644 16.932-23.644 29.156 0 6.356 2.096 12.008 6.292 16.964 4.256 5.008 10.328 8.912 18.208 11.712 7.944 2.8 16.844 4.2 26.696 4.2 9.916 0 18.752-1.536 26.504-4.604 7.756-3.016 13.764-7.296 18.020-12.844 4.324-5.548 6.484-11.848 6.484-18.9h-28.604c0 5.384-2 9.556-6.004 12.52-4.004 3.016-9.632 4.524-16.876 4.524-6.992 0-12.428-1.268-16.304-3.796-3.876-2.48-5.816-5.764-5.816-9.856 0-3.824 2.256-7.028 6.768-9.612 4.58-2.584 11.284-5.008 20.12-7.268 16.272-4.148 28.124-9.288 35.56-15.428s11.156-13.784 11.156-22.94c0-10.176-4.544-18.172-13.632-23.988-9.092-5.76-21.328-8.64-36.708-8.64-10.68 0-20.404 1.64-29.176 4.924-8.768 3.34-15.476 7.888-20.116 13.652-4.576 5.76-6.864 12.44-6.864 20.032h28.696c0-12.98 9.156-19.468 27.46-19.468 6.8 0 12.108 1.16 15.92 3.476 3.816 2.368 5.724 5.652 5.724 9.852zM688.128 318.976c6.788 0 12.288-5.5 12.288-12.288v-8.192h-24.576v8.192c0 6.788 5.5 12.288 12.288 12.288zM675.84 161.28v8.192h24.576v-8.192c0-6.784-5.5-12.288-12.288-12.288s-12.288 5.504-12.288 12.288z" />
<glyph unicode="&#xe908;" glyph-name="target-outline" data-tags="target-outline" d="M510.852 634.572c-58.844 0-109.020-19.954-127.435-73.415-5.304-15.522-11.608-51.282-16.68-84.426-2.495-16.304-4.635-31.58-6.152-42.784-0.758-5.6-1.36-10.176-1.772-13.352-0.206-1.584-0.364-2.82-0.471-3.66l-0.060-0.472c0.244-16.632 8.778-32.376 22.56-44.312 14.011-12.132 32.566-19.508 50.59-19.508h166.296c17.996 0 36.552 7.428 50.58 19.608 13.808 11.988 22.328 27.74 22.572 44.228-0.020 0.14-0.040 0.3-0.060 0.48-0.108 0.836-0.26 2.068-0.464 3.648-0.404 3.168-0.996 7.732-1.744 13.32-1.492 11.18-3.608 26.424-6.084 42.708-5.032 33.108-11.336 68.828-16.764 84.46-18.688 53.545-68.656 73.477-127.456 73.477h-7.456zM683.172 417.196l12.196 1.504 0.092-0.748v-0.756c0-25.4-12.936-47.784-31.040-63.504-18.084-15.7-42.252-25.624-66.692-25.624h-166.296c-24.412 0-48.578 9.832-66.679 25.508-18.129 15.7-31.052 38.092-31.052 63.62v0.768l0.096 0.76 12.192-1.528c-12.192 1.528-12.192 1.532-12.192 1.532l0.042 0.34c0.028 0.22 0.070 0.548 0.124 0.976 0.109 0.856 0.27 2.108 0.478 3.716 0.417 3.212 1.025 7.836 1.79 13.484 1.53 11.296 3.69 26.72 6.213 43.208 4.963 32.432 11.558 70.636 17.722 88.668l0.009 0.026c23.449 68.098 87.385 90.002 150.677 90.002h7.456c63.34 0 126.916-21.93 150.66-89.954l0.008-0.016c6.324-18.21 12.924-56.45 17.848-88.846 2.508-16.472 4.64-31.872 6.148-43.148 0.756-5.64 1.352-10.252 1.76-13.46 0.208-1.604 0.364-2.856 0.472-3.708 0.052-0.428 0.092-0.756 0.12-0.976l0.044-0.332v-0.008c0 0 0 0-12.196-1.504zM464.036 664.983c0.128-1.12 0.312-2.352 0.54-3.62 0.236-1.31 0.484-2.461 0.672-3.279 0.092-0.406 0.168-0.722 0.216-0.926 0.024-0.102 0.044-0.175 0.056-0.217l0.008-0.035v0.006c-0.004 0.001-0.004 0.002-11.896-3.086s-11.892-3.087-11.896-3.086l-0.004 0.023-0.008 0.039-0.032 0.118c-0.024 0.095-0.056 0.225-0.096 0.386-0.080 0.321-0.184 0.769-0.312 1.318-0.248 1.094-0.576 2.619-0.892 4.375-0.588 3.262-1.324 8.259-1.080 12.843 0.016 0.284 0.036 0.698 0.056 1.17 0.044 1.032 0.096 2.341 0.164 3.176 0.108 1.297 0.38 4.387 2.072 7.452 2.144 3.884 5.536 6.076 8.852 7.103 2.692 0.835 5.396 0.923 7.272 0.923 11.336 0 25.88-1.069 37.324-2.098 5.78-0.519 10.872-1.038 14.524-1.428 1.824-0.195 3.296-0.358 4.308-0.472 0.028-0.003 0.056-0.006 0.080-0.009 0.92 0.115 2.224 0.276 3.856 0.467 3.352 0.392 8.088 0.915 13.636 1.437 11.036 1.039 25.552 2.102 38.912 2.102 1.876 0 4.58-0.088 7.276-0.923 3.312-1.028 6.704-3.219 8.848-7.103 1.692-3.065 1.964-6.155 2.072-7.452 0.068-0.835 0.124-2.144 0.164-3.177 0.020-0.472 0.040-0.886 0.056-1.17 0.244-4.584-0.492-9.581-1.080-12.843-0.316-1.756-0.644-3.282-0.892-4.375-0.128-0.55-0.232-0.997-0.312-1.318-0.040-0.161-0.072-0.29-0.096-0.386l-0.028-0.117-0.016-0.053v-0.009c-0.004-0.001-0.004-0.002-11.896 3.086s-11.892 3.088-11.892 3.086l0.004 0.030c0.012 0.042 0.032 0.115 0.056 0.217 0.048 0.204 0.124 0.52 0.216 0.927 0.188 0.818 0.436 1.97 0.672 3.279 0.232 1.278 0.416 2.52 0.544 3.646-10.464-0.254-21.392-1.076-30.304-1.914-5.332-0.502-9.876-1.003-13.084-1.378-1.6-0.188-2.864-0.344-3.724-0.451-0.428-0.054-0.756-0.096-0.972-0.124l-0.308-0.040-1.528-0.204-1.9 0.223c-0.248 0.029-0.624 0.072-1.108 0.126-0.972 0.11-2.392 0.267-4.168 0.456-3.548 0.379-8.504 0.884-14.116 1.388-9.124 0.82-19.724 1.614-28.816 1.894zM465.528 656.9c0-0.002 0-0.002 0 0v0zM572.668 748.155c-12.736 1.812-31.416 1.888-54.26-5.648l-3.588-1.184-3.636 1.038c-25.232 7.209-44.116 7.090-56.316 5.403-0.148-0.020-0.292-0.040-0.432-0.061 2.072-2.505 4.256-5.241 6.444-8.138 4.98-6.596 10.176-14.277 14.176-22.169 3.892-7.674 7.248-16.698 7.248-25.684h-24.576c0 3.303-1.38 8.231-4.592 14.573-3.104 6.123-7.38 12.522-11.872 18.47-4.46 5.908-8.948 11.129-12.34 14.884-1.688 1.871-3.084 3.36-4.052 4.37-0.48 0.505-0.856 0.889-1.1 1.139-0.124 0.125-0.212 0.217-0.268 0.274l-0.064 0.064-0.004 0.002c-2.748 2.75-4.032 6.638-3.464 10.484 0.568 3.847 2.924 7.198 6.352 9.034l5.804-10.832c-5.804 10.832-5.796 10.835-5.788 10.839l0.012 0.007 0.028 0.016 0.068 0.035c0.048 0.026 0.104 0.054 0.168 0.086 0.124 0.064 0.28 0.142 0.464 0.232 0.368 0.179 0.852 0.406 1.448 0.668 1.196 0.525 2.852 1.193 4.964 1.911 4.22 1.436 10.244 3.065 18.008 4.139 14.912 2.061 36.016 2.040 62.816-5.117 25.24 7.705 46.48 7.676 61.816 5.494 8.004-1.139 14.372-2.859 18.844-4.346 2.232-0.744 3.996-1.43 5.26-1.958 0.628-0.264 1.136-0.49 1.512-0.663 0.188-0.086 0.344-0.16 0.468-0.22 0.060-0.030 0.116-0.056 0.16-0.078l0.060-0.030 0.028-0.013 0.012-0.006c0.004-0.003 0.012-0.006-5.484-10.996l5.496 10.991c3.428-1.714 5.86-4.93 6.576-8.696s-0.368-7.648-2.924-10.5l-0.004-0.002zM606.136 745.969l-0.008-0.008-0.056-0.066c-0.056-0.062-0.144-0.161-0.26-0.295-0.236-0.268-0.596-0.676-1.056-1.21-0.92-1.069-2.256-2.639-3.864-4.599-3.224-3.933-7.504-9.373-11.752-15.445-4.28-6.114-8.368-12.631-11.336-18.742-3.108-6.394-4.364-11.080-4.364-13.892h-24.576c0 8.453 3.224 17.206 6.836 24.636 3.752 7.714 8.624 15.404 13.304 22.090 2.308 3.296 4.608 6.406 6.768 9.222-0.992 0.175-2.028 0.34-3.104 0.493zM542.696 464.088c0 4.576-1.908 8.076-5.724 10.5-3.812 2.476-10.676 5.060-20.592 7.752-9.916 2.748-17.764 5.44-23.548 8.076-15.764 7.216-23.644 16.936-23.644 29.16 0 6.352 2.096 12.008 6.292 16.96 4.256 5.008 10.328 8.912 18.208 11.712 7.948 2.8 16.844 4.2 26.696 4.2 9.916 0 18.752-1.532 26.504-4.604 7.756-3.016 13.764-7.296 18.020-12.84 4.324-5.548 6.484-11.848 6.484-18.9h-28.604c0 5.384-2 9.556-6.004 12.52-4.004 3.012-9.632 4.52-16.876 4.52-6.992 0-12.428-1.264-16.304-3.796-3.876-2.476-5.816-5.76-5.816-9.852 0-3.824 2.256-7.028 6.768-9.612 4.58-2.584 11.284-5.008 20.12-7.268 16.272-4.148 28.124-9.292 35.56-15.428 7.436-6.14 11.156-13.784 11.156-22.94 0-10.176-4.544-18.172-13.632-23.988-9.092-5.76-21.328-8.644-36.708-8.644-10.68 0-20.404 1.644-29.176 4.928-8.768 3.34-15.476 7.888-20.116 13.652-4.576 5.76-6.864 12.436-6.864 20.028h28.696c0-12.976 9.156-19.464 27.46-19.464 6.8 0 12.108 1.156 15.92 3.472 3.816 2.372 5.724 5.656 5.724 9.856zM518.144 577.024c6.788 0 12.288-5.502 12.288-12.288v-8.192h-24.576v8.192c0 6.786 5.5 12.288 12.288 12.288zM505.856 419.328v8.192h24.576v-8.192c0-6.788-5.5-12.288-12.288-12.288s-12.288 5.5-12.288 12.288zM739.972 294.372c0.172 0.064 0.56 0.2 1.148 0.344 1.288 0.312 3.616 0.688 6.928 0.448 4.22-0.308 10.484-1.652 18.596-5.948l-127.644-82.636c-0.056-0.028-0.112-0.056-0.172-0.084-0.556-0.264-1.392-0.66-2.48-1.16-2.18-1-5.364-2.42-9.296-4.056-7.876-3.284-18.648-7.396-30.376-10.808-11.94-3.276-63.512-13.016-113.16-22.104-24.652-4.512-48.532-8.808-66.252-11.98-8.856-1.584-16.172-2.888-21.274-3.792-2.551-0.456-4.548-0.808-5.906-1.048l-1.018-0.18h-90.999v66.028h14.063l65.371 71.608c0.724 0.348 1.805 0.82 3.234 1.312 3.42 1.176 8.881 2.484 16.291 2.484h167.039c-0.464-1.36-1.008-2.772-1.64-4.212-3.896-8.904-10.996-18.608-24.536-23.968h-77.212l-0.112-24.576 158.348-1.384-1.112 12.24c1.112-12.24 1.12-12.236 1.128-12.236h0.016l0.036 0.004 0.068 0.008c0.048 0.004 0.1 0.008 0.152 0.016 0.104 0.012 0.212 0.024 0.332 0.040 0.24 0.032 0.512 0.072 0.82 0.128 0.616 0.104 1.376 0.26 2.296 0.484 1.844 0.452 4.364 1.196 7.704 2.424 6.668 2.448 16.772 6.892 31.504 14.996l0.040 0.020 0.040 0.024c13.904 7.784 33.184 17.084 49.204 24.52 7.964 3.7 15.044 6.9 20.132 9.176 2.54 1.14 4.584 2.044 5.988 2.664 0.7 0.308 1.244 0.548 1.608 0.708l0.544 0.24 0.448 0.196 0.112 0.060zM645.040 195.848l5.432-11.020 0.644 0.316 158.856 102.848-13.332 10.644c-18.676 14.908-34.596 20.148-46.808 21.040-6.044 0.44-10.94-0.208-14.536-1.084-1.792-0.44-3.248-0.928-4.352-1.364-0.552-0.216-1.016-0.42-1.392-0.592-0.084-0.040-0.168-0.080-0.248-0.116l-0.316-0.14c-0.38-0.168-0.94-0.412-1.656-0.732-1.436-0.632-3.516-1.556-6.1-2.712-5.164-2.312-12.348-5.56-20.44-9.316-16.080-7.468-36.056-17.080-50.82-25.348-13.92-7.652-22.868-11.516-28.096-13.436-2.608-0.96-4.244-1.416-5.072-1.62-0.028-0.008-0.052-0.012-0.076-0.020l-40.7 0.372c3.864 5.040 6.76 10.256 8.908 15.16 2.992 6.828 4.58 13.132 5.432 17.748 0.424 2.32 0.672 4.244 0.816 5.644 0.068 0.704 0.116 1.272 0.144 1.7 0.012 0.212 0.024 0.388 0.032 0.528 0.004 0.068 0.004 0.128 0.008 0.176l0.004 0.068v0.040c0 0.008 0 0.012-12.28 0.456l12.28-0.444 0.46 12.732h-12.74v-12.288c0 12.288 0 12.288 0 12.288h-182.067c-10.366 0-18.524-1.84-24.28-3.82-2.87-0.988-5.132-2.004-6.765-2.832-0.817-0.416-1.477-0.784-1.979-1.076-0.251-0.148-0.463-0.28-0.634-0.388-0.086-0.052-0.162-0.1-0.228-0.144l-0.092-0.060-0.040-0.024-0.019-0.016-0.009-0.004c-0.004-0.004-0.009-0.008 6.807-10.232l-6.816 10.224-1.248-0.832-60.435-66.2h-27.798v-115.18h117.732l1.061 0.188-2.139 12.1c2.139-12.1 2.14-12.1 2.141-12.1l2.086 0.368c1.362 0.24 3.363 0.596 5.917 1.052 5.112 0.904 12.436 2.212 21.308 3.796 17.736 3.176 41.648 7.48 66.344 12 48.948 8.956 102.2 18.976 115.352 22.604l0.16 0.048c12.9 3.748 24.604 8.224 33.052 11.744 4.236 1.768 7.684 3.304 10.092 4.408 1.208 0.556 2.152 1 2.808 1.312 0.328 0.156 0.584 0.28 0.764 0.368l0.208 0.1 0.064 0.032 0.028 0.012v0.004c0.004 0 0.004 0-5.428 11.020zM214.139 273.796h65.904c9.94 0 18.022-8.080 18.022-18.020v-40.224h-16.466v-63.488h16.466v-41.368c0-9.944-8.082-18.024-18.022-18.024h-65.904v181.124zM273.49 127.488h-16.466v112.64h16.466v9.092h-34.775v-131.972h34.775v10.24z" />
<glyph unicode="&#xe909;" glyph-name="team-outline" data-tags="team-outline" d="M449.832 693.716c-14.396-16.192-22.824-40.086-22.824-70.296 0-25.759 13.2-54.902 31.744-77.964 9.172-11.408 19.308-20.876 29.104-27.408 9.976-6.648 18.668-9.628 25.168-9.628 6.604 0 15.336 2.912 25.28 9.368 9.78 6.352 19.892 15.596 29.036 26.828 18.456 22.67 31.7 51.802 31.7 78.804 0 30.21-8.428 54.104-22.824 70.296-14.252 16.028-35.344 25.647-63.192 25.647s-48.94-9.619-63.192-25.647zM432.996 708.684c19.080 21.458 46.628 33.206 80.028 33.206s60.948-11.749 80.028-33.206c18.932-21.294 28.516-51.003 28.516-85.264 0-33.748-16.18-67.748-36.756-93.024-10.372-12.74-22.18-23.672-34.24-31.504-11.9-7.724-24.936-13-37.548-13-12.716 0-25.792 5.504-37.66 13.408-12.044 8.028-23.828 19.18-34.168 32.040-20.492 25.48-36.716 59.471-36.716 92.080 0 34.262 9.584 63.971 28.516 85.264zM352.733 445.064c22.975 20.936 51.671 33.66 73.251 33.66h28.192l2.328-1.132c5.488-2.668 15.308-6.808 26.368-10.26 11.2-3.5 22.816-6.016 32.2-6.016 9.332 0 20.4 2.496 30.872 5.956 10.36 3.424 19.348 7.524 24.26 10.136l2.476 1.316h27.384c30.712 0 59.936-16.708 81.14-40.664 21.276-24.044 35.596-56.576 35.596-90.408v-89.088c0-25.572-10.636-42.448-24.036-52.62-12.824-9.732-27.584-12.916-36.38-12.916h-285.696c-21.756 0-37.264 9.844-47.014 22.792-9.429 12.52-13.402 27.76-13.402 39.672v98.304c0 38.752 19.122 70 42.461 91.268zM367.907 428.412c-19.925-18.156-35.107-43.74-35.107-74.616v-98.304c0-7.548 2.683-17.904 8.87-26.12 5.866-7.792 14.934-13.816 29.018-13.816h285.696c4.516 0 14.332 1.936 22.756 8.332 7.848 5.952 15.132 16.216 15.132 34.676v89.088c0 27.604-11.792 54.976-29.94 75.476-18.22 20.588-41.732 33.068-64.268 33.068h-21.848c-6.132-3.068-15.128-6.984-25.204-10.312-11.476-3.792-25.156-7.096-37.94-7.096-12.736 0-26.888 3.284-38.916 7.040-10.776 3.364-20.524 7.324-27.104 10.368h-23.068c-14.26 0-37.788-9.296-58.077-27.784zM491.092 403.64l-21.54 33.48 30.396-8.412 13.088-17.888 10.464 19.848 30.024 6.624-18.56-33.5 19.512-135.564-31.284-43.46h-21.636l-28.904 43.656 18.44 135.216zM513.048 397.924l-16.996-124.648 16.664-23.44 18.248 23.636-17.916 124.452zM674.532 602.63c-10.484-11.888-16.804-29.644-16.804-52.478 0-19.088 9.756-40.996 23.7-58.48 6.876-8.624 14.432-15.724 21.652-20.576 7.404-4.976 13.516-6.964 17.724-6.964 4.312 0 10.468 1.956 17.836 6.78 7.204 4.716 14.732 11.64 21.584 20.124 13.856 17.16 23.656 39.060 23.656 59.116 0 22.834-6.32 40.589-16.804 52.478-10.328 11.714-25.676 18.858-46.272 18.858s-35.944-7.144-46.272-18.858zM657.636 617.53c15.136 17.167 36.956 26.486 63.168 26.486s48.032-9.319 63.172-26.486c14.984-16.993 22.432-40.537 22.432-67.378 0-26.748-12.688-53.488-28.656-73.268-8.064-9.988-17.284-18.608-26.772-24.82-9.324-6.104-19.804-10.46-30.176-10.46-10.472 0-21 4.552-30.288 10.792-9.468 6.364-18.664 15.152-26.7 25.228-15.884 19.916-28.616 46.648-28.616 72.528 0 26.84 7.448 50.385 22.436 67.378zM824.164 249.552h-61.696c-1.108 0.584-2.644 1.616-4.18 3.152-2.948 2.952-6.136 7.92-6.136 16.536v95.448c0 17.208 0.496 33.476 13.004 47.22h8.52c11.52 0 27.088-6.728 40.364-20.66 12.956-13.592 21.544-31.856 21.544-51.34v-69.896c-0.784-4.548-2.704-10.788-5.672-15.504-3.12-4.956-5.024-4.956-5.748-4.956zM858.112 268.324v71.584c0 52.312-45.888 94.528-84.436 94.528h-17.436c-26.616-22.024-26.616-50.476-26.616-69.748v-95.448c0-30.288 23.864-42.216 30.288-42.216h64.244c22.76 0 32.12 27.532 33.956 41.3zM260.805 601.993c-10.484-11.888-16.802-29.643-16.802-52.477 0-19.088 9.754-41 23.698-58.48 6.877-8.624 14.43-15.724 21.653-20.576 7.404-4.976 13.514-6.964 17.724-6.964 4.312 0 10.466 1.956 17.836 6.78 7.205 4.716 14.733 11.64 21.583 20.124 13.856 17.16 23.656 39.056 23.656 59.116 0 22.834-6.318 40.588-16.802 52.477-10.33 11.714-25.678 18.858-46.273 18.858s-35.944-7.144-46.273-18.858zM243.908 616.893c15.138 17.167 36.959 26.486 63.17 26.486s48.032-9.319 63.17-26.486c14.985-16.993 22.433-40.537 22.433-67.377 0-26.748-12.686-53.492-28.656-73.268-8.064-9.988-17.285-18.612-26.772-24.82-9.322-6.104-19.802-10.46-30.175-10.46-10.474 0-20.999 4.552-30.287 10.792-9.469 6.36-18.665 15.152-26.702 25.228-15.883 19.916-28.614 46.648-28.614 72.528 0 26.84 7.448 50.384 22.433 67.377zM201.882 250.044h61.697c1.108 0.584 2.643 1.616 4.179 3.152 2.95 2.952 6.136 7.92 6.136 16.536v95.448c0 17.208-0.494 33.476-13.004 47.22h-8.52c-11.52 0-27.086-6.728-40.364-20.66-12.952-13.592-21.542-31.856-21.542-51.34v-69.896c0.782-4.548 2.703-10.788 5.67-15.504 3.121-4.956 5.027-4.956 5.749-4.956zM167.936 268.816v71.584c0 52.312 45.888 94.528 84.434 94.528h17.438c26.615-22.024 26.615-50.476 26.615-69.748v-95.448c0-30.284-23.862-42.216-30.286-42.216h-64.244c-22.76 0-32.122 27.532-33.957 41.3z" />
<glyph unicode="&#xe90a;" glyph-name="account" data-tags="account" d="M168.28 648.861l316.861 128.571c16.384 8.781 37.386 8.755 53.738-0.064l314.858-128.486c10.387-5.602 16.662-13.186 16.662-23.525 0-10.243-6.051-29.984-15.328-35.498l-343.070 130.141-345.091-130.176c-9.292 5.504-15.358 25.246-15.358 35.498 0 10.357 6.306 17.952 16.73 23.539zM176 96v80h64v392l272 104 272-104v-392h64v-80h-672zM736 176v344l-224 88-224-80v-352h448zM687.998 255.494v-16.624c-22.206-6.838-86.512-18.27-175.998-18.27s-153.792 11.432-176 18.27v16.626c0 63.171 78.798 89.77 176 89.77s175.998-26.598 175.998-89.771zM515.666 378.277c50.63 0 91.667 41.035 91.667 91.666s-41.037 91.667-91.667 91.667c-50.63 0-91.666-41.037-91.666-91.667s41.035-91.666 91.666-91.666z" />
<glyph unicode="&#xe90b;" glyph-name="alarm-warning" data-tags="alarm-warning" d="M475.989 808.108h72.021v-108.031h-72.021v108.031zM223.914 375.981v-216.064h-36.011v-72.021h648.192v72.021h-36.010v216.064c0 159.106-128.981 288.085-288.086 288.085s-288.085-128.979-288.085-288.085zM728.062 375.981v-216.064h-432.128v216.064c0 119.328 96.736 216.064 216.064 216.064 119.33 0 216.064-96.736 216.064-216.064zM843.018 656.085l-50.918 50.918-76.379-76.378 50.955-50.92 76.342 76.379zM180.994 656.085l50.918 50.918 76.379-76.342-50.883-50.99-76.414 76.414zM512 556.034c-99.442 0-180.054-80.613-180.054-180.053h72.022c0 59.664 48.366 108.032 108.032 108.032v72.021z" />
<glyph unicode="&#xe90c;" glyph-name="arrow-back" data-tags="arrow-back" d="M385.347 597.51v-143.36l-213.315 175.104 213.315 177.152v-143.36h179.469c158.589 0 287.152-128.37 287.152-286.72s-128.563-286.72-287.152-286.72h-308.816v65.536h308.816c118.942 0 221.507 102.421 221.507 221.184s-102.565 221.184-221.507 221.184h-179.469z" />
<glyph unicode="&#xe90d;" glyph-name="arrow-begin" data-tags="arrow-begin" d="M272 48c-17.673 0-32 14.327-32 32v736c0 17.673 14.327 32 32 32s32-14.327 32-32v-736c0-17.673-14.327-32-32-32zM784 48c-9.222 0-17.534 3.901-23.374 10.144-3.634 1.558-7.037 3.821-10.003 6.787l-359.424 359.424c-12.496 12.496-12.496 32.758 0 45.254l359.424 359.424c2.203 2.203 4.648 4.018 7.248 5.444 5.797 8.182 15.339 13.522 26.13 13.522 17.674 0 32-14.327 32-32v-736c0-17.674-14.326-32-32-32zM752 154.062v585.838l-292.92-292.918 292.92-292.92z" />
<glyph unicode="&#xe90e;" glyph-name="arrow-down" data-tags="arrow-down" d="M130.974 651.877c12.497 12.498 32.759 12.498 45.255 0l336.797-336.795 336.797 336.795c12.496 12.498 32.758 12.498 45.254 0 12.498-12.496 12.498-32.757 0-45.254l-359.424-359.424c-12.496-12.496-32.758-12.496-45.254 0l-359.424 359.424c-12.497 12.498-12.497 32.758 0 45.254z" />
<glyph unicode="&#xe90f;" glyph-name="arrow-end" data-tags="arrow-end" d="M752 848c17.673 0 32-14.327 32-32v-736c0-17.673-14.327-32-32-32s-32 14.327-32 32v736c0 17.673 14.327 32 32 32zM240 848c9.222 0 17.534-3.902 23.374-10.144 3.634-1.558 7.037-3.82 10.003-6.787l359.424-359.424c12.496-12.496 12.496-32.758 0-45.254l-359.424-359.424c-2.203-2.203-4.648-4.018-7.248-5.445-5.797-8.181-15.339-13.522-26.13-13.522-17.674 0-32 14.326-32 32v736c0 17.673 14.326 32 32 32zM272 741.938v-585.838l292.918 292.918-292.918 292.92z" />
<glyph unicode="&#xe910;" glyph-name="arrow-first" data-tags="arrow-first" d="M795.874 829.034c12.496-12.497 12.496-32.758 0-45.254l-336.797-336.797 336.797-336.797c12.496-12.496 12.496-32.758 0-45.254-12.498-12.498-32.758-12.498-45.254 0l-359.424 359.424c-12.498 12.496-12.498 32.758 0 45.254l359.424 359.424c12.496 12.497 32.757 12.497 45.254 0zM272 48c-17.673 0-32 14.327-32 32v736c0 17.673 14.327 32 32 32s32-14.327 32-32v-736c0-17.673-14.327-32-32-32z" />
<glyph unicode="&#xe911;" glyph-name="arrow-last" data-tags="arrow-last" d="M228.126 66.966c-12.496 12.496-12.496 32.758 0 45.254l336.797 336.797-336.797 336.797c-12.496 12.496-12.496 32.758 0 45.255 12.498 12.497 32.758 12.497 45.254 0l359.424-359.424c12.498-12.496 12.498-32.758 0-45.254l-359.424-359.424c-12.496-12.498-32.757-12.498-45.254 0zM752 848c17.673 0 32-14.327 32-32v-736c0-17.673-14.327-32-32-32s-32 14.327-32 32v736c0 17.673 14.327 32 32 32z" />
<glyph unicode="&#xe912;" glyph-name="arrow-left" data-tags="arrow-left" d="M715.87 829.034c12.496-12.497 12.496-32.758 0-45.254l-336.797-336.797 336.795-336.797c12.498-12.496 12.498-32.758 0-45.254-12.496-12.498-32.757-12.498-45.254 0l-359.424 359.424c-12.496 12.496-12.496 32.758 0 45.254l359.424 359.424c12.498 12.497 32.758 12.497 45.256 0z" />
<glyph unicode="&#xe913;" glyph-name="arrow-left-double" data-tags="arrow-left-double" d="M859.87 783.779c12.496 12.496 12.496 32.758 0 45.254-12.498 12.497-32.758 12.497-45.256 0l-359.424-359.424c-12.496-12.496-12.496-32.758 0-45.254l359.424-359.424c12.498-12.498 32.758-12.498 45.254 0 12.498 12.496 12.498 32.758 0 45.254l-336.795 336.797 336.797 336.797zM571.869 783.779c12.498 12.496 12.498 32.758 0 45.254-12.496 12.497-32.757 12.497-45.254 0l-359.424-359.424c-12.496-12.496-12.496-32.758 0-45.254l359.424-359.424c12.498-12.498 32.758-12.498 45.254 0 12.498 12.496 12.498 32.758 0 45.254l-336.795 336.797 336.795 336.797z" />
<glyph unicode="&#xe914;" glyph-name="arrow-left-long" data-tags="arrow-left-long" d="M894.203 448.008c0 24-18.621 32-31.875 32h-492.885c-13.254 0-27.24-16-27.24-32s13.986-32 27.24-32h492.885c13.254 0 31.875 8 31.875 32zM542.494 128.398c8.549 10.13 25.451 23.059 15.322 31.608l-335.613 283.448 336 292.554c9.946 8.762-7.28 26.141-16.043 36.085-8.762 9.946-33.571 10.904-43.517 2.142l-341.086-300.507c-18.334-16.152-18.028-44.824 0.646-60.582l340.827-287.613c10.13-8.547 34.915-7.266 43.464 2.866z" />
<glyph unicode="&#xe915;" glyph-name="arrow-right" data-tags="arrow-right" d="M308.13 66.966c-12.496 12.496-12.496 32.758 0 45.254l336.797 336.797-336.795 336.797c-12.498 12.496-12.498 32.758 0 45.255 12.496 12.497 32.757 12.497 45.254 0l359.424-359.424c12.496-12.496 12.496-32.758 0-45.254l-359.424-359.424c-12.498-12.498-32.758-12.498-45.256 0z" />
<glyph unicode="&#xe916;" glyph-name="arrow-right-double" data-tags="arrow-right-double" d="M167.194 110.174c-12.497-12.498-12.497-32.758 0-45.254 12.496-12.498 32.757-12.498 45.254 0l359.424 359.424c12.496 12.496 12.496 32.757 0 45.254l-359.424 359.424c-12.498 12.497-32.758 12.497-45.254 0-12.497-12.497-12.497-32.758 0-45.254l336.795-336.797-336.795-336.797zM455.194 110.174c-12.498-12.498-12.498-32.758 0-45.254 12.496-12.498 32.757-12.498 45.254 0l359.424 359.424c12.496 12.496 12.496 32.757 0 45.254l-359.424 359.424c-12.498 12.497-32.758 12.497-45.254 0-12.498-12.497-12.498-32.758 0-45.254l336.795-336.797-336.795-336.797z" />
<glyph unicode="&#xe917;" glyph-name="arrow-right-long" data-tags="arrow-right-long" d="M144 448.008c0 24 18.621 32 31.875 32h492.885c13.254 0 27.24-16 27.24-32s-13.986-32-27.24-32h-492.885c-13.254 0-31.875 8-31.875 32zM495.709 128.398c-8.549 10.13-25.451 23.059-15.322 31.608l335.613 283.448-336 292.554c-9.946 8.762 7.28 26.141 16.043 36.085 8.762 9.946 33.571 10.904 43.517 2.142l341.086-300.507c18.333-16.152 18.027-44.824-0.646-60.582l-340.827-287.613c-10.13-8.547-34.917-7.266-43.464 2.866z" />
<glyph unicode="&#xe918;" glyph-name="arrow-right-top" data-tags="arrow-right-top" d="M255.31 183.368c-16.97 16.971-9.461 35.795-0.088 45.166l348.523 348.523c9.373 9.373 30.574 7.947 41.888-3.366s12.739-32.515 3.366-41.888l-348.523-348.523c-9.371-9.373-28.195-16.882-45.166 0.088zM730.005 206.066c-13.208 1.118-34.302-1.691-33.184 11.517l36.885 437.742-444.453-30.722c-13.229-0.837-13.336 23.632-14.173 36.861-0.837 13.227 16.029 31.448 29.258 32.285l453.674 28.694c24.386 1.542 44.443-18.949 42.382-43.296l-37.629-444.373c-1.118-13.208-19.552-29.827-32.76-28.709z" />
<glyph unicode="&#xe919;" glyph-name="arrow-up" data-tags="arrow-up" d="M893.026 244.123c-12.496-12.498-32.758-12.498-45.254 0l-336.797 336.797-336.797-336.797c-12.496-12.498-32.758-12.498-45.255 0-12.497 12.496-12.497 32.757 0 45.254l359.424 359.424c12.496 12.496 32.758 12.496 45.254 0l359.424-359.424c12.498-12.498 12.498-32.758 0-45.254z" />
<glyph unicode="&#xe91a;" glyph-name="article" data-tags="article" d="M224.254 89.606h573.44c19.794 0 35.84 16.046 35.84 35.84v645.12c0 19.794-16.046 35.84-35.84 35.84h-573.44c-19.794 0-35.84-16.046-35.84-35.84v-645.12c0-19.794 16.046-35.84 35.84-35.84zM761.858 734.717v-573.44h-501.76v573.44h501.76zM331.774 663.038h143.36v-143.36h-143.36v143.36zM690.174 447.998h-358.4v-71.68h358.4v71.68zM331.774 304.635h358.4v-71.68h-358.4v71.68zM690.174 627.195h-143.36v-71.678h143.36v71.678z" />
<glyph unicode="&#xe91b;" glyph-name="at" data-tags="at" d="M581.715 726.091c127.542-31.97 216.992-146.597 217.006-278.085v-53.76c0-29.691-24.069-53.76-53.76-53.76s-53.76 24.069-53.76 53.76v197.12h-71.68c-76.902 57.672-185.611 44.395-246.373-30.091s-51.931-183.645 20.014-247.395c71.944-63.75 181.374-59.379 248.006 9.906 30.936-45.582 87.99-65.646 140.648-49.461s88.592 64.832 88.584 119.922v53.76c0 197.944-160.456 358.4-358.4 358.4s-358.4-160.456-358.4-358.4c0-197.944 160.456-358.4 358.4-358.4 70.782-0.114 139.998 20.834 198.84 60.176l-39.782 59.637c-109.4-72.942-254.395-62.123-351.758 26.248s-122.139 231.643-60.104 347.578c62.034 115.936 194.976 174.816 322.518 142.846zM404.478 447.994c0 59.382 48.139 107.52 107.52 107.52 59.382 0 107.52-48.138 107.52-107.52 0-59.381-48.138-107.52-107.52-107.52s-107.52 48.139-107.52 107.52z" />
<glyph unicode="&#xe91c;" glyph-name="award" data-tags="award" d="M677.939 335.088v-227.331c0.002-5.958-3.202-11.458-8.387-14.395-5.184-2.938-11.547-2.861-16.659 0.202l-140.381 84.235-140.382-84.235c-5.117-3.066-11.486-3.139-16.674-0.194-5.186 2.946-8.386 8.456-8.373 14.421v227.298c-87.733 70.243-121.541 188.234-84.318 294.28s137.357 177.023 249.747 177.023c112.389 0 212.523-70.976 249.746-177.023s3.416-224.037-84.318-294.28zM609.026 208.005v160.24c60.846 33.915 102 98.909 102 173.514 0 109.635-88.877 198.512-198.512 198.512-109.637 0-198.514-88.877-198.514-198.512 0-74.605 41.155-139.598 102-173.514v-160.24l96.514 64 96.512-64zM448 544c0-35.346 28.654-64 64-64s64 28.654 64 64c0 35.346-28.654 64-64 64s-64-28.654-64-64z" />
<glyph unicode="&#xe91d;" glyph-name="bank-card" data-tags="bank-card" d="M189.442 770.563h645.12c19.794 0 35.84-16.046 35.84-35.84v-573.44c0-19.795-16.046-35.84-35.84-35.84h-645.12c-19.794 0-35.84 16.045-35.84 35.84v573.44c0 19.794 16.046 35.84 35.84 35.84zM798.72 448h-573.44v-250.88h573.44v250.88zM798.72 698.88h-573.44v-107.52h573.44v107.52z" />
<glyph unicode="&#xe91e;" glyph-name="bar-chart" data-tags="bar-chart" d="M416 800h208v-704h-208v704zM368 416v-320h-224v320h224zM304 352h-96v-192h96v192zM560 736h-80v-576h80v576zM672 608h208v-512h-208v512zM816 544h-80v-384h80v384z" />
<glyph unicode="&#xe91f;" glyph-name="barricade" data-tags="barricade" d="M805.238 219.92h-47.048l-116.336 528.194c-3.314 14.904-16.531 25.509-31.8 25.512h-196.106c-15.267-0.003-28.486-10.608-31.8-25.512l-116.334-528.194h-47.048v-65.163h586.472v65.163zM691.434 219.926h-358.856l21.733 97.746h315.392l21.731-97.746zM368.803 382.837l28.966 130.328h228.462l28.998-130.328h-286.427zM612.352 579.072h-200.704l21.827 129.024h157.050l21.827-129.024z" />
<glyph unicode="&#xe920;" glyph-name="blueprint" data-tags="blueprint" d="M320 217.627h-68.171c-19.851 0-35.942-16.093-35.942-35.942 0-19.851 16.091-37.683 35.942-37.683h564.171v543.998h-432v64h460.058c19.851 0 35.942-16.091 35.942-35.942v-600.114c0-19.851-16.093-35.942-35.942-35.942h-592.229c-59.552 0-107.828 48.275-107.828 107.827v504.344c0 59.552 48.276 107.827 107.828 107.827h68.171v-582.373zM816 224h-368v-80h-64v544h64v-176h176v176h64v-176h128v-64h-368v-160h368v-64z" />
<glyph unicode="&#xe921;" glyph-name="bolt" data-tags="bolt" d="M685.292 818.185l-78.769-204.801h220.554l-409.6-564.429v52.429l63.015 307.2h-189.046l63.015 409.601h330.831zM701.046 550.368h-189.082l80.617 209.082h-179.186l-43.18-292.231 204.8 4.38-55.138-173.292 181.169 252.062z" />
<glyph unicode="&#xe922;" glyph-name="book" data-tags="book" d="M848 224v576h-584.378c-39.555 0-71.622-32.067-71.622-71.622v-538.312c0-59.334 48.101-107.435 107.435-107.435h537.173v71.624h-537.173c-19.779 0-35.813 16.034-35.813 35.811s16.034 33.934 35.813 33.934h548.565zM672 560v64h-288v-64h288zM784 736v-448h-512v368.050c0 28.262 0 47.96 16 63.95 16.010 16 35.71 16 64 16h432z" />
<glyph unicode="&#xe923;" glyph-name="bookmark" data-tags="bookmark" d="M780.71 800h-537.421c-19.49 0-35.29-15.616-35.29-34.877v-667.662c0.005-6.344 3.496-12.186 9.115-15.253s12.48-2.875 17.917 0.499l276.968 158.205 276.968-158.24c5.442-3.378 12.31-3.566 17.933-0.491 5.621 3.077 9.107 8.93 9.099 15.28v667.662c0 19.261-15.8 34.877-35.29 34.877zM272 736h480v-560l-240 144-240-144v560z" />
<glyph unicode="&#xe924;" glyph-name="bookmark-minus" data-tags="bookmark-minus" d="M780.71 800h-537.421c-19.49 0-35.29-15.616-35.29-34.877v-667.662c0.005-6.344 3.496-12.186 9.115-15.253s12.48-2.875 17.917 0.499l276.968 158.205 276.968-158.24c5.442-3.378 12.31-3.566 17.933-0.491 5.621 3.077 9.107 8.93 9.099 15.28v667.662c0 19.261-15.8 34.877-35.29 34.877zM272 736h480v-560l-240 144-240-144v560zM384 560h256v-64h-256v64z" />
<glyph unicode="&#xe925;" glyph-name="bookmark-star" data-tags="bookmark-star" d="M780.71 800h-537.421c-19.49 0-35.29-15.616-35.29-34.877v-667.662c0.005-6.344 3.496-12.186 9.115-15.253s12.48-2.875 17.917 0.499l276.968 158.205 276.968-158.24c5.442-3.378 12.31-3.566 17.933-0.491 5.621 3.077 9.107 8.93 9.099 15.28v667.662c0 19.261-15.8 34.877-35.29 34.877zM272 736h480v-560l-240 144-240-144v560zM512 401.146l-95.803-50.363 18.286 106.658-77.483 75.562 107.115 15.581 47.885 97.043 47.918-97.043 107.082-15.581-77.483-75.562 18.254-106.658-95.771 50.363z" />
<glyph unicode="&#xe926;" glyph-name="book-open" data-tags="book-open" d="M608 816c-64 0-96-64-96-64s-32 64-96 64h-256c-10.667 0-32-6.4-32-32v-592c0-10.667 6.4-32 32-32h704c10.667 0 32 6.4 32 32v592c0 10.667-6.4 32-32 32h-256zM192 768h192c53.019 0 96-42.981 96-96v-448h-288v544zM637.176 752h194.824v-528h-288v434.824c0 51.459 41.717 93.176 93.176 93.176zM256 128v32h64v-32h-64zM256 224v32h64v-32h-64z" />
<glyph unicode="&#xe927;" glyph-name="briefcase" data-tags="briefcase" d="M331.349 644.262v87.296c0 19.842 16.085 35.926 35.926 35.926h287.402c19.842 0 35.926-16.085 35.926-35.926v-87.296h143.701c19.842 0 35.925-16.083 35.925-35.925v-482.475c0-19.84-16.083-35.925-35.925-35.925h-646.656c-19.842 0-35.925 16.085-35.925 35.925v482.475c0 19.842 16.084 35.925 35.925 35.925h143.701zM460.8 367.104h-237.227v-205.312h574.805v205.312h-235.178v-54.272h-102.4v54.272zM223.573 572.416v-133.461h574.805v133.461h-574.805zM403.456 695.808v-53.248h215.040v53.248h-215.040zM563.2 511.488h-102.4v-53.248h102.4v53.248z" />
<glyph unicode="&#xe928;" glyph-name="bug" data-tags="bug" d="M511.997 800c-77.762 0-140.802-63.038-140.802-140.802h281.603c0 77.763-63.038 140.802-140.802 140.802zM284.461 247.72c-12.491 30.005-18.904 62.189-18.867 94.69h-105.601v70.4h105.601v35.2c0 22.635 3.062 44.53 8.765 65.333l-77.899 44.986 35.202 60.968 71.104-41.045c2.245 3.581 4.581 7.101 7.005 10.56h404.453c2.429-3.45 4.752-7.005 7.005-10.56l71.106 41.045 35.2-60.968-77.899-44.986c5.702-20.768 8.765-42.698 8.765-65.333v-35.2h105.602v-70.4h-105.602c0-33.547-6.688-65.544-18.867-94.69l88.002-50.829-35.2-60.968-88.917 51.323c-46.742-57.776-117.104-91.314-191.419-91.24-74.315-0.074-144.678 33.464-191.421 91.24l-88.915-51.323-35.202 60.968 88.002 50.829zM547.198 169.923c81.944 16.754 140.792 88.843 140.802 172.482v105.602c0.048 24.224-4.926 48.195-14.608 70.4h-322.787c-9.682-22.205-14.656-46.176-14.608-70.4v-105.602c0.010-83.638 58.858-155.728 140.802-172.482v207.682h70.4v-207.682z" />
<glyph unicode="&#xe929;" glyph-name="building" data-tags="building" d="M870.571 179.029h-65.195v554.155c0 18.003-14.594 32.597-32.597 32.597h-521.557c-18.003 0-32.598-14.594-32.598-32.597v-554.155h-65.194v-65.194h717.141v65.194zM740.182 700.586v-521.557h-456.363v521.557h456.363zM381.611 472.406h97.792v-65.195h-97.792v65.195zM479.403 602.794h-97.792v-65.194h97.792v65.194zM381.611 342.016h97.792v-65.195h-97.792v65.195zM642.389 342.016h-97.792v-65.195h97.792v65.195zM544.597 472.406h97.792v-65.195h-97.792v65.195zM642.389 602.794h-97.792v-65.194h97.792v65.194z" />
<glyph unicode="&#xe92a;" glyph-name="calculate" data-tags="calculate" d="M896.003 832h-768.001c-23.564 0-42.667-19.103-42.667-42.667v-682.666c0-23.565 19.102-42.667 42.667-42.667h768.001c23.563 0 42.666 19.102 42.666 42.667v682.666c0 23.565-19.102 42.667-42.666 42.667zM170.666 149.336v597.333h682.667v-597.333h-682.667zM384.002 490.667h85.333v-85.334h-85.333v-85.333h-85.334v85.333h-85.333v85.334h85.333v85.333h85.334v-85.333zM810.666 490.669h-256v-85.333h256v85.333z" />
<glyph unicode="&#xe92b;" glyph-name="calendar" data-tags="calendar" d="M688.002 736.002l-0.002 79.998h-64v-79.998l-224-0.002v79.999l-63.998 0.001v-79.998h-156.162c-19.794 0-35.84-16.046-35.84-35.84v-584.32c0-19.795 16.046-35.84 35.84-35.84l664.322-0.002c19.794 0 35.84 16.046 35.84 35.84v584.32c0 19.794-16.046 35.84-35.84 35.84l-156.16 0.002zM624 672v-80h64v80h128v-176h-608v176h128v-80h64v80h224zM208 432h608v-288h-608v288z" />
<glyph unicode="&#xe92c;" glyph-name="chart-customize" data-tags="chart-customize" d="M495.997 471.995c73.123-13.504 202.979-34.832 292.637-49.558l0.010-0.002c55.091-9.048 95.002-15.605 97.245-16.318 13.746 200.678-130.059 375.747-325.89 404.164 0 0-62.598-277.881-64.002-338.286zM163.216 505.899c-41.77-193.486 81.214-384.189 274.701-425.958v65.331c-127.283 34.573-221.45 160.107-218.741 292.611 2.803 137.114 112.010 259.338 247.101 282.958v64.79c-145.664-19.373-270.266-127.816-303.061-279.733zM479.997 71.554v344.443l384-64c-36.408-159.349-177.776-282.235-348.16-282.235-12.078 0-24.050 0.61-35.84 1.792zM827.378 474.738l-271.621 45.403 44.8 223.442c119.626-39.818 207.619-143.642 226.821-268.845z" />
<glyph unicode="&#xe92d;" glyph-name="chat" data-tags="chat" d="M154.281 98.504l159.516 125.322h520.795c19.776 0 35.806 16.030 35.806 35.805v501.283c0 19.774-16.030 35.805-35.806 35.805h-644.506c-19.774 0-35.805-16.030-35.805-35.805v-662.41zM798.787 295.442h-509.768l-63.125-49.59v479.261h572.893v-429.67z" />
<glyph unicode="&#xe92e;" glyph-name="clipboard" data-tags="clipboard" d="M624 656h-224v16h-96v-528h416v528h-96v-16zM624 768v-32h112c26.51 0 48-21.49 48-48v-560c0-26.509-21.49-48-48-48h-448c-26.51 0-48 21.491-48 48v560c0 26.51 21.49 48 48 48h112v32c0 17.674 14.326 32 32 32h160c17.674 0 32-14.326 32-32zM576 752h-128v-48h128v48z" />
<glyph unicode="&#xe92f;" glyph-name="clock" data-tags="clock" d="M864 464c0 194.405-157.595 352-352 352s-352-157.595-352-352c0-194.405 157.595-352 352-352s352 157.595 352 352zM800 464c0-159.058-128.942-288-288-288s-288 128.942-288 288c0 159.058 128.942 288 288 288s288-128.942 288-288zM304 432c0 12.6 11.245 32 25.118 32h166.882v201.186c0 12.6 18.128 22.814 32 22.814s32-10.214 32-22.814v-242.371l-25.118-22.814h-205.763c-13.874 0-25.118 19.4-25.118 32z" />
<glyph unicode="&#xe930;" glyph-name="clock-alram" data-tags="clock-alram" d="M864 448c0 194.405-157.595 352-352 352s-352-157.595-352-352c0-194.405 157.595-352 352-352s352 157.595 352 352zM800 448c0-159.058-128.942-288-288-288s-288 128.942-288 288c0 159.058 128.942 288 288 288s288-128.942 288-288zM655.563 810.746c103.398-36.378 185.086-118.836 220.416-222.724 13.4 23.658 21.050 51 21.050 80.13 0 89.922-72.894 162.817-162.816 162.817-28.525 0-55.336-7.335-78.65-20.223zM368.437 810.746c-103.398-36.378-185.086-118.836-220.416-222.724-13.4 23.658-21.050 51-21.050 80.13 0 89.922 72.895 162.817 162.816 162.817 28.525 0 55.336-7.335 78.65-20.223zM320 416c0 12.6 11.245 32 25.118 32h166.882v201.186c0 12.6 18.128 22.814 32 22.814s32-10.214 32-22.814v-242.371l-25.118-22.814h-205.763c-13.874 0-25.118 19.4-25.118 32zM321.538 103.934l-2.549 23.864c-13.179-1.406-22.723-13.232-21.317-26.413 1.408-13.178 13.23-22.72 26.408-21.317l0.083 0.010 0.421 0.042c0.394 0.040 1.018 0.099 1.875 0.178 1.717 0.158 4.368 0.389 7.992 0.667 7.245 0.558 18.373 1.314 33.662 2.070 30.581 1.515 77.8 3.043 143.888 3.043s113.307-1.528 143.886-3.043c15.29-0.757 26.418-1.512 33.664-2.070 3.622-0.278 6.274-0.509 7.99-0.667 0.858-0.078 1.482-0.138 1.877-0.178l0.498-0.050c0 0 0 0 0 0 13.176-1.4 25.006 8.139 26.413 21.315 1.406 13.181-8.136 25.006-21.317 26.413l-2.547-23.864c2.547 23.864 2.55 23.864 2.547 23.864l-0.088 0.010-0.171 0.018-0.6 0.061c-0.514 0.051-1.256 0.122-2.23 0.211-1.95 0.179-4.834 0.429-8.683 0.725-7.698 0.594-19.264 1.376-34.976 2.154-31.424 1.558-79.437 3.102-146.262 3.102s-114.838-1.544-146.262-3.102c-15.712-0.778-27.278-1.56-34.978-2.154-3.85-0.296-6.731-0.546-8.682-0.725-0.976-0.090-1.718-0.16-2.232-0.211l-0.859-0.088c-0.003 0 0 0 2.549-23.864z" />
<glyph unicode="&#xe931;" glyph-name="close" data-tags="close" d="M862.054 738.747c12.496 12.498-3.504 32.758-16 45.256-12.498 12.496-32.758 12.496-45.254 0l-290.722-283.067-288.821 283.062c-12.498 12.498-32.758 12.498-45.254 0-12.498-12.496-28.498-32.758-16-45.254l298.166-291.771-298.17-289.722c-12.497-12.498 3.504-32.758 16-45.254 12.498-12.498 32.758-12.498 45.254 0l290.722 283.066 288.821-283.062c12.498-12.498 32.758-12.498 45.254 0 12.498 12.496 28.498 32.758 16 45.254l-298.166 291.771 298.17 289.722z" />
<glyph unicode="&#xe932;" glyph-name="cloud" data-tags="cloud" d="M274.486 176.243h441.28c51.165-0.030 100.469 19.198 138.102 53.862s60.843 82.224 65.010 133.219c4.166 50.997-11.014 101.691-42.523 142.005-31.507 40.314-77.035 67.291-127.526 75.566-26.63 47.403-66.875 85.722-115.528 109.994-48.651 24.274-103.469 33.382-157.357 26.149-53.888-7.232-104.363-30.475-144.891-66.718-40.53-36.243-69.246-83.819-82.432-136.566-42.334-6.446-80.666-28.659-107.312-62.181-26.645-33.523-39.634-75.878-36.362-118.576s22.563-82.579 54.006-111.651c31.442-29.070 72.711-45.181 115.533-45.102zM512.099 651.467c36.15-0.043 71.643-9.685 102.846-27.941s57-44.47 74.75-75.963l15.886-28.48 32.214-5.261c33.558-5.622 63.784-23.642 84.691-50.488 20.906-26.846 30.971-60.565 28.2-94.478-2.77-33.915-18.173-65.552-43.16-88.65-24.987-23.099-57.734-35.973-91.762-36.074h-441.28c-25.67-0.027-50.403 9.643-69.25 27.074s-30.413 41.334-32.387 66.93c-1.973 25.595 5.792 50.99 21.742 71.104s38.909 33.462 64.28 37.371l44.672 6.789 10.93 43.856c10.965 44.096 36.389 83.245 72.21 111.197 35.822 27.954 79.978 43.098 125.416 43.014z" />
<glyph unicode="&#xe933;" glyph-name="cloud-check" data-tags="cloud-check" d="M274.486 176.253h441.28c51.165-0.030 100.469 19.2 138.102 53.864s60.843 82.222 65.010 133.219c4.166 50.995-11.014 101.691-42.523 142.005-31.507 40.314-77.035 67.29-127.526 75.566-26.632 47.402-66.88 85.72-115.534 109.99s-103.475 33.376-157.363 26.139c-53.888-7.237-104.362-30.485-144.89-66.731-40.526-36.248-69.238-83.826-82.421-136.576-42.286-6.498-80.56-28.725-107.159-62.235s-39.561-75.83-36.291-118.488c3.27-42.659 22.529-82.509 53.924-111.574s72.609-45.202 115.391-45.179zM512.099 651.477c36.15-0.042 71.643-9.685 102.846-27.941 31.203-18.254 57-44.47 74.75-75.963l15.886-28.48 32.214-5.261c33.558-5.622 63.784-23.64 84.691-50.488 20.906-26.846 30.971-60.565 28.2-94.478s-18.173-65.552-43.16-88.65-57.734-35.971-91.762-36.074h-441.28c-25.67-0.026-50.403 9.643-69.25 27.074s-30.413 41.336-32.387 66.93c-1.973 25.595 5.792 50.992 21.742 71.106s38.909 33.461 64.28 37.371l44.672 6.789 10.93 43.856c10.965 44.094 36.389 83.245 72.21 111.197 35.822 27.952 79.978 43.096 125.416 43.013zM476.864 287.931l-118.805 118.806 47.861 47.861 70.944-70.944 156.146 156.146 47.861-47.862-204.006-204.006z" />
<glyph unicode="&#xe934;" glyph-name="cloud-close" data-tags="cloud-close" d="M274.486 176.243h441.28c51.165-0.030 100.469 19.198 138.102 53.862s60.843 82.224 65.010 133.219c4.166 50.997-11.014 101.691-42.523 142.005-31.507 40.314-77.035 67.291-127.526 75.566-26.63 47.403-66.875 85.722-115.528 109.994-48.651 24.274-103.469 33.382-157.357 26.149-53.888-7.232-104.363-30.475-144.891-66.718-40.53-36.243-69.246-83.819-82.432-136.566-42.334-6.446-80.666-28.659-107.312-62.181-26.645-33.523-39.634-75.878-36.362-118.576s22.563-82.579 54.006-111.651c31.442-29.070 72.711-45.181 115.533-45.102zM512.099 651.467c36.15-0.043 71.643-9.685 102.846-27.941s57-44.47 74.75-75.963l15.886-28.48 32.214-5.261c33.558-5.622 63.784-23.642 84.691-50.488 20.906-26.846 30.971-60.565 28.2-94.478-2.77-33.915-18.173-65.552-43.16-88.65-24.987-23.099-57.734-35.973-91.762-36.074h-441.28c-25.67-0.027-50.403 9.643-69.25 27.074s-30.413 41.334-32.387 66.93c-1.973 25.595 5.792 50.99 21.742 71.104s38.909 33.462 64.28 37.371l44.672 6.789 10.93 43.856c10.965 44.096 36.389 83.245 72.21 111.197 35.822 27.954 79.978 43.098 125.416 43.014zM599.914 297.968l47.963 47.998-77.835 77.834 77.835 77.835-47.997 47.998-77.835-77.802-77.835 77.802-47.997-47.998 77.834-77.835-77.834-77.834 47.997-47.965 77.869 77.802 77.835-77.835z" />
<glyph unicode="&#xe935;" glyph-name="cloud-crack" data-tags="cloud-crack" d="M350.462 154.354h325.12c95.107-0.059 176.395 68.475 192.41 162.224s-37.912 185.382-127.645 216.899c4.010 83.808-38.419 163.026-110.406 206.131s-161.85 43.106-233.837 0c-71.986-43.106-114.416-122.323-110.405-206.131-89.734-31.517-143.66-123.15-127.645-216.899s97.301-162.283 192.409-162.224zM592.029 686.61c51.592-28.691 83.576-83.096 83.554-142.131-83.971 0-158.531-53.712-185.123-133.363l61.709-20.581c21.008 63.021 86.134 100.077 151.043 85.942 64.909-14.133 108.731-74.915 101.634-140.963-7.098-66.050-62.832-116.133-129.262-116.155h-325.12c-63.328 0.101-117.387 45.782-128.050 108.206-10.662 62.426 25.17 123.461 84.874 144.574l45.648 16.062-2.277 48.378c-2.891 58.963 26.411 114.859 76.549 146.022 50.138 31.165 113.229 32.699 164.822 4.008z" />
<glyph unicode="&#xe936;" glyph-name="cloud-down" data-tags="cloud-down" d="M274.486 176.253h441.28c51.165-0.030 100.469 19.2 138.102 53.864s60.843 82.222 65.010 133.219c4.166 50.995-11.014 101.691-42.523 142.005-31.507 40.314-77.035 67.29-127.526 75.566-26.632 47.402-66.88 85.72-115.534 109.99s-103.475 33.376-157.363 26.139c-53.888-7.237-104.362-30.485-144.89-66.731-40.526-36.248-69.238-83.826-82.421-136.576-42.286-6.498-80.56-28.725-107.159-62.235s-39.561-75.83-36.291-118.488c3.27-42.659 22.529-82.509 53.924-111.574s72.609-45.202 115.391-45.179zM512.099 651.477c36.15-0.042 71.643-9.685 102.846-27.941 31.203-18.254 57-44.47 74.75-75.963l15.886-28.48 32.214-5.261c33.558-5.622 63.784-23.64 84.691-50.488 20.906-26.846 30.971-60.565 28.2-94.478s-18.173-65.552-43.16-88.65-57.734-35.971-91.762-36.074h-441.28c-25.67-0.026-50.403 9.643-69.25 27.074s-30.413 41.336-32.387 66.93c-1.973 25.595 5.792 50.992 21.742 71.106s38.909 33.461 64.28 37.371l44.672 6.789 10.93 43.856c10.965 44.094 36.389 83.245 72.21 111.197 35.822 27.952 79.978 43.096 125.416 43.013zM512.099 312.032l135.778 135.778h-86.558v101.834h-98.44v-101.834h-86.558l135.779-135.778z" />
<glyph unicode="&#xe937;" glyph-name="cloud-off" data-tags="cloud-off" d="M275.506 109.32l66.87 66.906h373.39c51.165-0.030 100.469 19.198 138.102 53.862s60.843 82.222 65.010 133.219c4.166 50.995-11.014 101.691-42.523 142.005-31.507 40.314-77.035 67.29-127.526 75.566l-0.646 1.154 103.362 103.362-48.032 47.997-576.038-576.038 48.032-48.032zM688.17 521.984l49.728-8.112c33.654-5.534 63.994-23.531 84.986-50.413 20.992-26.88 31.098-60.677 28.309-94.669-2.789-33.994-18.269-65.691-43.36-88.79-25.093-23.101-57.96-35.912-92.066-35.886h-305.501l277.904 277.87zM179.442 205.282l49.526 49.491c-16.971 8.414-31.243 21.418-41.198 37.533-9.954 16.117-15.19 34.699-15.117 53.642 0.107 24.275 8.835 47.722 24.627 66.157 15.794 18.435 37.622 30.658 61.592 34.49l44.672 6.789 10.93 43.822c7.413 29.642 21.4 57.237 40.925 80.739s44.088 42.31 71.87 55.032c27.781 12.72 58.069 19.026 88.618 18.451 30.55-0.574 60.579-8.014 87.862-21.771l49.933 49.864c-36.358 22.222-77.435 35.576-119.909 38.982-42.475 3.406-85.155-3.23-124.589-19.373s-74.517-41.341-102.41-73.554c-27.894-32.213-47.814-70.538-58.154-111.875-33.726-5.192-65.106-20.432-90.041-43.728-24.935-23.298-42.269-53.57-49.738-86.867s-4.728-68.074 7.866-99.789c12.595-31.717 34.457-58.899 62.734-78.002v-0.034z" />
<glyph unicode="&#xe938;" glyph-name="cloud-up" data-tags="cloud-up" d="M274.486 176.253h441.28c51.165-0.030 100.469 19.2 138.102 53.864s60.843 82.222 65.010 133.219c4.166 50.995-11.014 101.691-42.523 142.005-31.507 40.314-77.035 67.29-127.526 75.566-26.632 47.402-66.88 85.72-115.534 109.99s-103.475 33.376-157.363 26.139c-53.888-7.237-104.362-30.485-144.89-66.731-40.526-36.248-69.238-83.826-82.421-136.576-42.286-6.498-80.56-28.725-107.159-62.235s-39.561-75.83-36.291-118.488c3.27-42.659 22.529-82.509 53.924-111.574s72.609-45.202 115.391-45.179zM512.099 651.477c36.15-0.042 71.643-9.685 102.846-27.941 31.203-18.254 57-44.47 74.75-75.963l15.886-28.48 32.214-5.261c33.558-5.622 63.784-23.64 84.691-50.488 20.906-26.846 30.971-60.565 28.2-94.478s-18.173-65.552-43.16-88.65-57.734-35.971-91.762-36.074h-441.28c-25.67-0.026-50.403 9.643-69.25 27.074s-30.413 41.336-32.387 66.93c-1.973 25.595 5.792 50.992 21.742 71.106s38.909 33.461 64.28 37.371l44.672 6.789 10.93 43.856c10.965 44.094 36.389 83.245 72.21 111.197 35.822 27.952 79.978 43.096 125.416 43.013zM462.878 312.032h98.44v101.834h86.558l-135.778 135.778-135.779-135.778h86.558v-101.834z" />
<glyph unicode="&#xe939;" glyph-name="collapse-around" data-tags="collapse-around" d="M883.19 815.996c9.373-9.372 17.373-22.627 8-32l-184-192h144c16.005 0 24.005-7.358 24.005-31.997 0-24-8-32-24.003-32.003l-207.995 0.002c-34.141-2.158-66.886 13.914-64 48l22.269 209.494c1.118 13.208 1.114 22.505 33.725 22.504 32.005 0.004 33.123-10.788 32.005-23.996l-16.005-152.003 192 192c16 16 24 8 40-8zM130.285 95.082c-9.142 9.598-16.816 23.045-7.218 32.186l188.622 187.461-143.958 3.509c-15.999 0.389-23.817 7.941-23.217 32.571 0.585 23.992 8.777 31.795 24.777 31.41l207.933-5.069c34.182 1.326 66.528-15.539 62.811-49.546l-27.365-208.888c-1.44-13.178-1.661-22.472-34.264-21.677-31.995 0.776-32.85 11.594-31.41 24.77l19.701 151.568-196.619-187.266c-16.385-15.606-24.188-7.413-39.793 8.971zM887.272 90.246c-8.858-9.861-21.664-18.56-31.526-9.704l-201.586 173.445 7.718-143.792c0.858-15.982-6.061-24.365-30.664-25.685-23.965-1.286-32.382 6.272-33.245 22.254l-11.146 207.696c-3.986 33.974 10.309 67.536 44.501 66.48l210.387-11.008c13.248-0.41 22.531 0.094 24.278-32.472 1.718-31.957-8.998-33.653-22.246-33.243l-152.643 7.834 202.014-181.434c16.835-15.118 9.275-23.536-5.843-40.371zM149.582 819.538c9.236 9.507 22.374 17.697 31.882 8.461l194.634-181.212-2.077 143.986c-0.23 16.002 7.011 24.107 31.646 24.462 23.998 0.346 32.112-7.538 32.347-23.541l2.997-207.973c2.651-34.106-12.949-67.080-47.072-64.685l-209.794 19.245c-13.222 0.928-22.518 0.789-22.987 33.398-0.466 32 10.31 33.274 23.533 32.346l152.218-13.81-194.749 189.211c-16.229 15.768-8.345 23.882 7.422 40.111z" />
<glyph unicode="&#xe93a;" glyph-name="community" data-tags="community" d="M458.562 427.394c-104.166 0-188.608 84.443-188.608 188.608s84.442 188.608 188.608 188.608c104.165 0 188.608-84.443 188.608-188.608s-84.443-188.608-188.608-188.608zM458.75 493.061c67.866 0 122.88 55.014 122.88 122.88 0 67.864-55.014 122.88-122.88 122.88-67.864 0-122.88-55.016-122.88-122.88 0-67.866 55.016-122.88 122.88-122.88zM153.602 126.47v51.2c0 129.024 147.456 187.392 359.424 187.392 25.666 0 29.434-30.272 20.403-68.606-193.394-0.018-314.125-32.338-314.288-112.478 0 0.963 0 0.522 0 0.138v-2.347c41.352-10.587 137.939-19.443 218.046-23.549-4.67-22.853-2.352-44.597-1.061-56.706 0.662-6.2 1.054-9.872 0.099-9.872-98.576 5.067-228.984 15.898-282.624 34.829zM870.403 139.224v-30.219c-24.238-7.464-94.424-19.941-192.093-19.941s-167.853 12.477-192.091 19.941v30.219c0 68.949 86.002 97.979 192.091 97.979s192.093-29.030 192.093-97.979zM795.973 371.49c0-55.83-45.259-101.088-101.088-101.088s-101.088 45.259-101.088 101.088c0 55.83 45.259 101.088 101.088 101.088s101.088-45.259 101.088-101.088z" />
<glyph unicode="&#xe93b;" glyph-name="community-building" data-tags="community-building" d="M834.562 125.443c19.794 0 35.84 16.045 35.84 35.84v573.44c0 19.794-16.046 35.84-35.84 35.84h-501.76c-19.794 0-35.84-16.046-35.84-35.84v-162.858l-131.067-114.294c-7.811-6.806-12.294-16.661-12.293-27.022v-269.266c0-19.795 16.046-35.84 35.84-35.84h645.12zM404.48 197.117v143.36h-71.68v-143.36h-107.52v217.12l143.36 125.010 143.36-125.010v-217.12h-107.52zM798.72 197.12h-215.040v233.426c0.002 10.362-4.482 20.216-12.293 27.024l-179.2 156.226c-6.738 5.914-15.16 8.853-23.547 8.853v76.232h430.080v-501.76zM655.36 483.84h71.68v-71.68h-71.68v71.68zM727.040 340.48h-71.68v-71.68h71.68v71.68zM655.36 627.2h71.68v-71.68h-71.68v71.68zM583.68 627.2h-71.68v-71.68h71.68v71.68z" />
<glyph unicode="&#xe93c;" glyph-name="company" data-tags="company" d="M168.28 648.909l316.861 128.57c16.384 8.781 37.386 8.755 53.738-0.064l314.858-128.486c10.387-5.602 16.662-13.186 16.662-23.523 0-10.245-13.122-27.891-22.398-33.405l-336 128.046-336-128.046c-9.293 5.504-24.45 23.118-24.45 33.368 0 10.357 6.306 17.954 16.73 23.541zM864 96h-704v80h704v-80zM343.997 656h336.003l168-64h-672l167.997 64zM192 544h640v-64h-640v64zM224 528h64v-352h-64v352zM480 528h64v-352h-64v352zM736 528h64v-352h-64v352z" />
<glyph unicode="&#xe93d;" glyph-name="compass" data-tags="compass" d="M186.184 447.994c0-179.949 145.869-325.818 325.818-325.818s325.818 145.869 325.818 325.818c0 179.95-145.869 325.819-325.818 325.819s-325.818-145.869-325.818-325.819zM772.659 448c0-143.957-116.699-260.654-260.654-260.654s-260.654 116.698-260.654 260.654c0 143.955 116.699 260.654 260.654 260.654s260.654-116.699 260.654-260.654zM658.622 594.618c0 0-187.579-57.251-211.782-81.454s-81.454-211.781-81.454-211.781c0 0 180.41 50.082 211.782 81.454s81.454 211.781 81.454 211.781zM544.586 448c0-17.994-14.587-32.582-32.582-32.582s-32.581 14.589-32.581 32.582c0 17.995 14.587 32.582 32.581 32.582s32.582-14.587 32.582-32.582z" />
<glyph unicode="&#xe93e;" glyph-name="configuration" data-tags="configuration" d="M464 448v112h400v64h-400v112h-208v-112h-96v-64h96v-112h208zM400 512h-80v144h80v-144zM160 336v-64h400v-112h208v112h96v64h-96v112h-208v-112h-400zM626.69 378.37h69.632v-145.408h-69.632v145.408z" />
<glyph unicode="&#xe93f;" glyph-name="contacts" data-tags="contacts" d="M798.717 89.59c19.795 0 35.84 16.046 35.84 35.84v645.12c0 19.794-16.045 35.84-35.84 35.84h-501.76c-59.381 0-107.52-48.138-107.52-107.52v-501.76c0-59.381 48.139-107.52 107.52-107.52h501.76zM762.882 161.29h-465.92c-19.794 0-35.84 16.046-35.84 35.84s16.046 35.84 35.84 35.84h465.92v-71.68zM296.962 304.632c-12.544 0-24.622-2.15-35.84-6.093v400.333c0 19.794 16.046 35.84 35.84 35.84h465.92v-430.080h-465.92zM665.603 391.026v-14.413c-19.253-5.93-75-15.838-152.576-15.838-77.578 0-133.325 9.909-152.576 15.838v14.413c0 54.765 68.31 77.822 152.576 77.822s152.576-23.058 152.576-77.822zM516.205 497.445c43.893 0 79.467 35.576 79.467 79.467 0 43.893-35.574 79.467-79.467 79.467-43.891 0-79.466-35.574-79.466-79.467 0-43.891 35.574-79.467 79.466-79.467z" />
<glyph unicode="&#xe940;" glyph-name="copy" data-tags="copy" d="M320.003 672v108.075c0 19.84 16.083 35.925 35.925 35.925h456.875c19.842 0 35.925-16.085 35.925-35.925l-0.725-520.15c0-19.84-16.083-35.925-35.925-35.925h-124.075l0.829-107.522c0-19.83-16.166-35.925-36.176-35.925h-439.213c-9.57-0.058-18.766 3.701-25.555 10.443s-10.613 15.912-10.622 25.482l0.003 519.597c0 19.83 16.166 35.925 36.178 35.925h106.557zM240.005 608v-464.002h384.002v464l-384.002 0.002zM688.006 671.998v-384h96v464h-400v-80h304z" />
<glyph unicode="&#xe941;" glyph-name="countdown" data-tags="countdown" d="M864 400c0 194.405-157.595 352-352 352-89.195 0-170.64-33.174-232.672-87.859l8.558 8.56-57.925 57.926-57.926-57.926 57.926-57.926 17.898 17.898c-54.685-62.032-87.859-143.477-87.859-232.672 0-194.405 157.595-352 352-352s352 157.595 352 352zM800 400c0-159.058-128.942-288-288-288s-288 128.942-288 288c0 159.058 128.942 288 288 288s288-128.942 288-288zM795.211 730.627l57.926-57.926-57.926-57.926-57.926 57.926 57.926 57.926zM552.056 435.802h117.075l-195.126-253.664v175.613h-117.075l195.126 253.859v-175.808zM673.794 857.594h-323.584v-81.92h323.584v81.92z" />
<glyph unicode="&#xe942;" glyph-name="cross-box" data-tags="cross-box" d="M870.402 770.853v-645.693c-0.174-19.586-17.782-35.418-39.544-35.554h-637.712c-21.824 0-39.522 15.912-39.544 35.554v645.693c0.174 19.584 17.782 35.417 39.544 35.553h637.712c21.822 0 39.544-15.913 39.544-35.553zM804.864 740.872h-585.728v-585.728h585.728v585.728zM390.354 615.995l-46.341-46.341 121.645-121.645-121.645-121.645 46.341-46.341 121.645 121.645 121.645-121.645 46.341 46.341-121.645 121.645 121.645 121.645-46.341 46.341-121.645-121.645-121.645 121.645z" />
<glyph unicode="&#xe943;" glyph-name="cross-circle" data-tags="cross-circle" d="M512.002 89.606c-197.944 0-358.4 160.456-358.4 358.4s160.456 358.4 358.4 358.4c197.944 0 358.4-160.456 358.4-358.4s-160.456-358.4-358.4-358.4zM512 155.144c161.744 0 292.864 131.12 292.864 292.864s-131.12 292.864-292.864 292.864c-161.744 0-292.864-131.12-292.864-292.864s131.12-292.864 292.864-292.864zM633.643 615.997l46.341-46.342-121.645-121.645 121.645-121.645-46.341-46.341-121.645 121.645-121.646-121.645-46.341 46.341 121.645 121.645-121.645 121.645 46.341 46.342 121.646-121.646 121.645 121.646z" />
<glyph unicode="&#xe944;" glyph-name="crown" data-tags="crown" d="M205.419 653.581l139.942-93.318 139.51 195.301c6.254 8.765 16.36 13.968 27.128 13.968s20.874-5.203 27.128-13.968l139.51-195.301 139.976 93.318c10.816 7.195 24.829 7.451 35.901 0.651 11.070-6.798 17.182-19.411 15.656-32.314l-54.757-465.486c-1.978-16.779-16.198-29.426-33.094-29.427h-540.64c-16.896 0.002-31.117 12.648-33.094 29.427l-54.757 465.52c-1.511 12.896 4.606 25.496 15.674 32.286 11.069 6.789 25.072 6.533 35.883-0.658h0.034zM228.442 558.114l42.859-364.438h481.382l42.859 364.438-133.643-89.085-149.907 209.862-149.907-209.862-133.643 89.085zM445.346 393.626c0-36.813 29.843-66.656 66.656-66.656s66.654 29.843 66.654 66.656c0 36.811-29.842 66.654-66.654 66.654s-66.656-29.843-66.656-66.654z" />
<glyph unicode="&#xe945;" glyph-name="cup" data-tags="cup" d="M798.722 770.563h-537.6c-19.794 0-35.84-16.046-35.84-35.84v-322.56c0-79.176 64.184-143.36 143.36-143.36h215.040c79.176 0 143.36 64.184 143.36 143.36v87.040h71.68c39.587 0 71.68 32.091 71.68 71.68v128c0 39.587-32.093 71.68-71.68 71.68zM661.506 704.003v-294.912c0-40.72-33.192-73.728-74.138-73.728h-222.413c-40.946 0-74.138 33.008-74.138 73.728v294.912h370.688zM727.042 704.003h77.824v-139.264h-77.824v139.264zM798.722 197.123h-645.12v-71.68h645.12v71.68z" />
<glyph unicode="&#xe946;" glyph-name="currency-boxes" data-tags="currency-boxes" d="M692.227 125.446c0-19.782-16.128-35.84-36.091-35.84h-429.686c-9.546-0.056-18.72 3.693-25.494 10.419-6.773 6.726-10.587 15.875-10.595 25.421l0.107 501.76c0 19.784 16.128 35.84 36.091 35.84h107.269v107.52c0 19.794 16.046 35.84 35.84 35.84h429.056c19.794 0 35.84-16.046 35.84-35.84v-501.76c0-19.794-16.046-35.84-35.84-35.84h-106.496v-107.52zM770.048 298.504v442.368h-370.688v-77.824h292.864v-364.544h77.824zM256.112 597.512l-0.112-442.368h370.688v442.368h-370.576zM494.082 304.648h-161.28v-71.68h71.68v-35.84h71.68v35.84h17.92c49.483 0 89.598 40.115 89.598 89.6s-40.115 89.6-89.598 89.6h-107.52c-9.898 0-17.92 8.024-17.92 17.92 0 9.898 8.022 17.92 17.92 17.92h161.278v71.68h-71.678v35.84h-71.68v-35.84h-17.92c-49.485 0-89.6-40.115-89.6-89.6s40.115-89.6 89.6-89.6h107.52c9.896 0 17.92-8.022 17.92-17.92 0-9.896-8.024-17.92-17.92-17.92z" />
<glyph unicode="&#xe947;" glyph-name="cut" data-tags="cut" d="M512.002 498.682l257.538 257.536c27.99 27.984 73.363 27.984 101.355 0l-450.427-450.427c36.667-62.187 21.371-141.938-35.701-186.149s-167.682-37.888-205.57 0c-35.487 35.486-39.766 144.054 4.443 201.126 44.21 57.074 123.962 72.368 186.149 35.701l91.536 91.534-91.536 91.536c-62.187-36.667-141.939-21.373-186.149 35.699-44.209 57.074-37.212 159.474 0 201.125 39.587 39.588 144.054 44.212 201.126 0.002s72.368-123.96 35.701-186.147l91.534-91.536zM768.016 141.294c27.992-27.982 73.365-27.982 101.355 0l-261.115 261.155-50.714-50.714 210.474-210.442zM349.95 286.106c-18.546 19.28-46.011 27.013-71.838 20.226s-45.997-27.040-52.757-52.971c-6.762-25.933-6.994-59.378 12.21-78 28.984-28.109 82.992-21.837 111.486 6.773s28.894 74.869 0.899 103.973zM273.454 591.875c25.454-9.277 53.934-4.098 74.491 13.549 31.030 26.634 34.99 73.222 8.901 104.71-26.091 31.488-80.067 42.914-112.003 17.374-21.16-16.92-24.078-50.597-19.694-77.333 4.382-26.734 22.851-49.024 48.306-58.301z" />
<glyph unicode="&#xe948;" glyph-name="delete" data-tags="delete" d="M360.747 770.85v-18.821h-207.286v-48.037h717.072v48.037h-205.243v18.821c0 19.802-16.051 35.854-35.853 35.854h-232.835c-19.802 0-35.854-16.052-35.854-35.854zM173.907 667.717h658.141l-44.194-549.342c0-21.198-16.051-38.384-35.853-38.384h-501.95c-19.802 0-35.854 17.186-35.854 38.384l-40.29 549.342zM245.611 607.989l26.39-464h456l32 464h-514.39zM464 527.992h-64v-288h64v288zM560 527.992h64v-288h-64v288z" />
<glyph unicode="&#xe949;" glyph-name="devices" data-tags="devices" d="M464.080 148.992c0 0-199.75 0-235.93 0s-47.923 11.861-47.923 48.014v369.094c0 36.154 11.742 48.014 47.923 48.014 36.179 0 51.61 0 51.61 0v84.878c0 36.152 11.742 48.014 47.923 48.014h468.173c36.179 0 47.923-11.862 47.923-48.014v-402.318c0-36.152-11.744-48.014-47.923-48.014h-283.853v-51.654c0-36.154-11.744-48.014-47.923-48.014zM246.582 547.669v-332.23h199.066v332.23h-199.066zM346.115 614.115h117.965c36.179 0 47.923-11.861 47.923-48.014v-250.994h265.421v365.454h-431.309v-66.446z" />
<glyph unicode="&#xe94a;" glyph-name="diamond" data-tags="diamond" d="M727.634 722.437h-431.264c-9.683 0.002-18.782-5.163-24.477-13.896l-115.667-177.277c-4.24-6.504-3.772-15.442 1.119-21.35 40.366-48.746 77.184-93.203 110.451-133.378 155.814-188.154 233.774-282.296 233.949-282.462 6.134-6.309 15.693-5.885 21.36 0.944l343.554 414.896c4.891 5.909 5.36 14.846 1.12 21.35l-115.669 177.277c-5.693 8.733-14.792 13.898-24.477 13.896zM227.083 525.122l84.715 129.854h400.403l84.717-129.854-284.918-344.032-284.917 344.032z" />
<glyph unicode="&#xe94b;" glyph-name="documant" data-tags="documant" d="M796.445 96h-568.89c-19.637 0-35.555 15.402-35.555 34.4v619.2c0 18.998 15.918 34.4 35.555 34.4h568.89c19.637 0 35.555-15.402 35.555-34.4v-619.2c0-18.998-15.918-34.4-35.555-34.4zM768 160v560h-512v-560h512zM659.2 622.843h-307.2v-64h307.2v64zM352 464h256v-64h-256v64zM528 315.656h-176v-64h176v64z" />
<glyph unicode="&#xe94c;" glyph-name="door-lock" data-tags="door-lock" d="M512.002 89.606c-197.944 0-358.4 160.456-358.4 358.4s160.456 358.4 358.4 358.4c197.944 0 358.4-160.456 358.4-358.4s-160.456-358.4-358.4-358.4zM512 155.144c161.744 0 292.864 131.12 292.864 292.864s-131.12 292.864-292.864 292.864c-161.744 0-292.864-131.12-292.864-292.864s131.12-292.864 292.864-292.864zM428.040 516.968c-8.296-39.754 12.427-79.877 49.648-96.122v-110.046h68.608v110.046c37.219 16.245 57.944 56.368 49.646 96.122s-43.341 68.238-83.95 68.238c-40.611 0-75.654-28.483-83.952-68.238z" />
<glyph unicode="&#xe94d;" glyph-name="download" data-tags="download" d="M208 112h608v-64h-608v64zM517.054 784c24 0 32-18.621 32-31.875v-371.736c0-13.256-16-27.24-32-27.24s-32 13.984-32 27.24v371.736c0 13.254 8 31.875 32 31.875zM197.445 553.44c10.13 8.549 23.059 25.451 31.608 15.322l283.45-335.613 292.552 336c8.763 9.946 26.141-7.28 36.086-16.043 9.946-8.762 10.904-33.571 2.141-43.517l-300.507-341.086c-16.152-18.333-44.824-18.027-60.582 0.646l-287.611 340.827c-8.549 10.13-7.266 34.915 2.864 43.464z" />
<glyph unicode="&#xe94e;" glyph-name="earth" data-tags="earth" d="M186.179 447.994c0 179.95 145.869 325.819 325.819 325.819s325.818-145.869 325.818-325.819c0-179.949-145.869-325.818-325.818-325.818-179.95 0-325.819 145.869-325.819 325.818zM324.17 628.746c-85.622-88.867-97.192-225.6-27.72-327.59 1.645-2.414 3.325-4.794 5.037-7.136 3.686-5.357 7.72-10.458 12.965-16.333 72.592-84.306 192.155-114.011 296.992-70.68 3.747 24.437-4.464 47.896-7.819 56.107-7.494 18.245-32.192 49.426-73.408 92.662-11.013 11.566-10.296 20.461-6.354 46.819l0.424 2.965c2.672 18.051 7.168 28.738 67.933 38.382 30.888 4.886 39.002-7.429 50.242-24.534l3.779-5.605c10.688-15.638 18.605-19.222 30.562-24.632 5.376-2.443 12.056-5.538 21.016-10.589 21.243-12.152 21.243-25.869 21.243-55.91v-3.421c0-12.739-1.238-23.947-3.194-33.69 50.68 63.605 68.776 147.216 48.933 226.085-19.843 78.867-75.354 143.96-150.099 176.008-18.018-12.154-42.747-29.389-51.381-41.216-1.066-1.461-2.242-4.379-3.699-8v0c-4.557-11.32-11.875-29.499-27.254-31.424-5.278-0.653-12.413-0.195-19.973 0.293l-0.027 0.002c-20.262 1.304-47.936 3.083-56.795-20.984-5.637-15.248-6.614-56.693 11.6-78.197 2.931-3.421 3.486-9.774 1.498-16.91-2.606-9.35-7.851-15.053-9.514-16.226-3.038 1.773-9.027 8.678-13.278 13.581l-0.373 0.43c-10.198 11.891-22.971 26.717-39.458 31.278-5.536 1.534-11.571 2.819-17.517 4.083l-1.477 0.315c-17.888 3.747-38.122 8.014-42.846 18.050-3.421 7.296-3.421 17.309-3.421 27.886v0.298c0 13.586 0 28.933-6.646 43.822-2.31 5.314-5.707 10.086-9.97 14.010zM314.451 277.686c4.634-5.19 10.21-10.987 17.325-18.102 6.477-6.477 13.653 22.869 15.36 34.816h-45.91l0.261-0.381c4.131-5.653 8.458-11.098 12.965-16.333z" />
<glyph unicode="&#xe94f;" glyph-name="edit" data-tags="edit" d="M304 255.992l432 448-88 88-440-433.296v-102.704h96zM144 383.992l478.243 464.002c15.95 15.946 41.806 15.946 57.757 0l113.989-119.96c15.946-15.95 15.946-41.806 0-57.757l-467.077-478.285h-182.912v192zM896 127.992v-80h-752v80h752z" />
<glyph unicode="&#xe950;" glyph-name="error" data-tags="error" d="M864 464c0 194.405-157.595 352-352 352s-352-157.595-352-352c0-194.405 157.595-352 352-352s352 157.595 352 352zM800 464c0-159.058-128.942-288-288-288s-288 128.942-288 288c0 159.058 128.942 288 288 288s288-128.942 288-288zM465.634 604.632c2.862 30.541 6.136 67.368 46.368 67.368 42.963 0 43.557-37.392 46.365-67.368 8.179-87.299-15.451-252.632-46.37-252.632-30.917 0-54.542 165.334-46.363 252.632zM544 288c0-17.673-14.327-32-32-32s-32 14.327-32 32c0 17.673 14.327 32 32 32s32-14.327 32-32z" />
<glyph unicode="&#xe951;" glyph-name="excel" data-tags="excel" d="M225.242 806.406h430.115l185.344-179.2v-501.509c0.067-9.506-3.645-18.648-10.318-25.418-6.675-6.768-15.765-10.608-25.27-10.674h-580.085c-19.586 0.136-35.434 15.968-35.59 35.554v645.693c0 19.64 16.021 35.553 35.805 35.553zM625.662 597.51v143.362h-369.662v-584.704h519.168v441.342h-149.506zM551.936 448.008l93.184-133.12h-79.872l-53.248 76.078-53.248-76.078h-79.872l93.184 133.12-93.184 133.12h79.872l53.248-76.078 53.248 76.078h79.872l-93.184-133.12z" />
<glyph unicode="&#xe952;" glyph-name="excel-files" data-tags="excel-files" d="M627.286 802.023l-407.635-58.205c-15.981-2.277-27.854-15.96-27.854-32.102v-527.453c0-16.142 11.874-29.826 27.854-32.102l407.669-58.205c4.648-0.658 9.355 0.733 12.901 3.811 3.544 3.078 5.581 7.544 5.582 12.24v675.965c0 4.702-2.040 9.174-5.594 12.254s-8.269 4.465-12.923 3.797zM256.683 212.406v471.16l324.267 46.338v-563.835l-324.267 46.338zM678.229 221.005h97.28v453.974h-97.28v64.853h129.707c17.909 0 32.426-14.518 32.426-32.427v-518.826c0-17.909-14.517-32.427-32.426-32.427h-129.707v64.853zM548.522 318.286l-90.794 129.706 90.794 129.707h-77.824l-51.882-74.128-51.883 74.128h-77.824l90.795-129.707-90.795-129.706h77.824l51.883 74.126 51.882-74.126h77.824z" />
<glyph unicode="&#xe953;" glyph-name="exchange-box" data-tags="exchange-box" d="M870.402 125.16v645.693c0 19.64-17.722 35.553-39.544 35.553h-637.712c-21.762-0.136-39.37-15.969-39.544-35.553v-645.693c0.022-19.642 17.72-35.554 39.544-35.554h637.712c21.762 0.136 39.37 15.968 39.544 35.554zM219.136 740.872h585.728v-585.728h-585.728v585.728zM512 554.504v106.496l177.493-177.493h-319.488v70.997h141.995zM653.995 412.509h-319.488l177.493-177.493v106.496h141.995v70.997z" />
<glyph unicode="&#xe954;" glyph-name="expand-around" data-tags="expand-around" d="M603.184 547.222c-9.373 9.373-17.373 22.627-8 32l184 192h-144c-16.005 0-24.005 7.358-24.005 31.996 0 24 8 32 24.005 32.004l207.995-0.003c34.139 2.159 66.886-13.914 64-48l-22.27-209.493c-1.118-13.208-1.114-22.506-33.725-22.504-32.005-0.003-33.123 10.789-32.005 23.997l16.005 152.003-192-192c-16-16-24-8-40 8zM413.723 360.403c9.371-9.373 17.371-22.627 8-32l-184-192h144c16.003 0 24.003-7.358 24.003-31.997 0-24-8-32-24.003-32.003l-207.995 0.002c-34.141-2.158-66.887 13.914-64.001 48l22.27 209.494c1.118 13.208 1.114 22.506 33.726 22.504 32.003 0.003 33.122-10.789 32.003-23.997l-16.003-152.003 192 192c16 16 24 8 40-8zM611.19 362.426c9.373 9.373 22.629 17.373 32 8l192-184v144c0 16.005 7.36 24.005 31.997 24.005 24-0.002 32-8 32.005-24.005l-0.003-207.995c2.158-34.141-13.914-66.886-48-64l-209.494 22.27c-13.208 1.118-22.506 1.114-22.504 33.725-0.003 32.005 10.789 33.123 23.997 32.005l152.003-16.005-192 192c-16 16-8 24 8 40zM420.363 541.59c-9.373-9.373-22.627-17.373-32-8l-192 184v-144c0-16.005-7.358-24.005-31.997-24.005-23.999 0-31.999 8-32.003 24.005l0.003 207.995c-2.159 34.14 13.914 66.886 48 64l209.494-22.27c13.206-1.118 22.504-1.114 22.502-33.725 0.003-32.005-10.789-33.123-23.997-32.005l-152.003 16.005 192-192c16-16 8-24-8-40z" />
<glyph unicode="&#xe955;" glyph-name="eye" data-tags="eye" d="M871.283 447.998c-31.25 170.027-180.222 298.877-359.282 298.877s-328.067-128.85-359.283-298.877c31.249-170.027 180.222-298.875 359.283-298.875 179.059 0 328.066 128.848 359.282 298.875zM803.475 447.99c-31.056-135.979-151.99-232.429-291.47-232.459-139.48 0.030-260.414 96.48-291.47 232.459 31.168 135.866 152.075 232.176 291.47 232.176s260.301-96.31 291.47-232.176zM512 298.562c82.533 0 149.438 66.906 149.438 149.438s-66.906 149.438-149.438 149.438c-82.533 0-149.438-66.906-149.438-149.438s66.906-149.438 149.438-149.438zM595.021 447.998c0-45.851-37.171-83.021-83.022-83.021s-83.021 37.17-83.021 83.021c0 45.851 37.17 83.022 83.021 83.022s83.022-37.171 83.022-83.022z" />
<glyph unicode="&#xe956;" glyph-name="eye-off" data-tags="eye-off" d="M512.005 149.133c-179.059 0-328.034 128.848-359.282 298.875 14.28 77.352 53.188 148.013 110.916 201.443l-103.909 103.81 46.99 46.989 657.493-657.527-46.989-46.957-109.907 109.907c-58.402-37.038-126.155-56.653-195.312-56.541zM310.598 602.432c-45.13-41.032-76.568-94.936-90.061-154.419 21.029-92.010 84.259-168.693 170.578-206.866 86.317-38.173 185.59-33.357 267.808 12.995l-67.347 67.346c-59.046-37.194-135.973-28.57-185.317 20.774-49.346 49.346-57.97 126.272-20.774 185.318l-74.886 74.851zM434.701 478.354c-12.075-30.738-4.784-65.709 18.568-89.061s58.323-30.643 89.061-18.568l-107.629 107.629zM804.474 295.507l-47.522 47.488c22.2 31.637 38.003 67.307 46.525 105.005-18.238 79.88-68.453 148.778-138.914 190.597s-154.995 52.893-233.85 30.638l-52.403 52.402c41.411 16.274 86.541 25.238 133.696 25.238 179.061 0 328.034-128.848 359.283-298.875-10.176-55.315-33.048-107.515-66.816-152.493zM617.696 553.701c-30.291 30.291-72.128 46.126-114.886 43.485h-0.032l158.403-158.371c2.643 42.758-13.192 84.594-43.485 114.886z" />
<glyph unicode="&#xe957;" glyph-name="file" data-tags="file" d="M188.893 59.082c6.93-7.027 16.365-11.013 26.232-11.082l611.72-0.061c20.39 0 36.925 16.518 36.946 36.907v694.246c0 19.979-16.742 36.907-37.28 36.907h-426.51l-221.819-220.544v-509.99c-0.069-9.867 3.784-19.358 10.712-26.384zM432 752v-192.384h-192l192 192.384zM240 496h256v256h304v-640.51h-560v384.51z" />
</font>
</defs>
</svg>
